<?xml version="1.0" encoding="UTF-8" standalone="no"?>
<svg
   id="visual"
   viewBox="0 0 900 1200"
   width="900"
   height="1200"
   version="1.1"
   sodipodi:docname="background.svg"
   inkscape:version="1.2.2 (732a01da63, 2022-12-09)"
   inkscape:export-filename="background.png"
   inkscape:export-xdpi="96"
   inkscape:export-ydpi="96"
   xmlns:inkscape="http://www.inkscape.org/namespaces/inkscape"
   xmlns:sodipodi="http://sodipodi.sourceforge.net/DTD/sodipodi-0.dtd"
   xmlns="http://www.w3.org/2000/svg"
   xmlns:svg="http://www.w3.org/2000/svg">
  <sodipodi:namedview
     id="namedview712"
     pagecolor="#ffffff"
     bordercolor="#000000"
     borderopacity="0.25"
     inkscape:showpageshadow="2"
     inkscape:pageopacity="0.0"
     inkscape:pagecheckerboard="0"
     inkscape:deskcolor="#d1d1d1"
     showgrid="false"
     inkscape:zoom="0.33138889"
     inkscape:cx="1068.2313"
     inkscape:cy="1466.5549"
     inkscape:window-width="2560"
     inkscape:window-height="1377"
     inkscape:window-x="1912"
     inkscape:window-y="-8"
     inkscape:window-maximized="1"
     inkscape:current-layer="g691" />
  <defs
     id="defs568" />
  <defs
     id="defs575" />
  <defs
     id="defs582" />
  <defs
     id="defs589" />
  <defs
     id="defs596" />
  <defs
     id="defs603" />
  <defs
     id="defs610" />
  <defs
     id="defs617" />
  <defs
     id="defs624" />
  <defs
     id="defs631" />
  <defs
     id="defs638" />
  <defs
     id="defs645" />
  <defs
     id="defs652" />
  <defs
     id="defs659" />
  <defs
     id="defs666" />
  <defs
     id="defs673" />
  <g
     transform="translate(900)"
     id="g691"
     style="display:inline">
    <rect
       x="0"
       y="0"
       width="900"
       height="1200"
       fill="#2e3744"
       id="rect864"
       style="stroke-width:1"
       transform="scale(-1,1)" />
    <path
       d="m -900,432.7 c 37.2,-28 74.5,-56.1 119.6,-64.6 45.1,-8.6 98.2,2.2 134.7,-18.1 36.6,-20.3 56.7,-71.7 67.7,-116.1 11,-44.4 13,-81.7 29.9,-119.6 16.9,-37.8 48.8,-76 80.8,-114.3 H -900 Z"
       fill="#2b3441"
       id="path675" />
    <path
       d="m -900,378.6 c 32.6,-24.5 65.2,-49 104.6,-56.5 39.5,-7.6 85.9,1.9 117.9,-15.8 32,-17.8 49.6,-62.8 59.2,-101.6 9.7,-38.9 11.4,-71.6 26.2,-104.7 14.8,-33 42.8,-66.5 70.7,-100 H -900 Z"
       fill="#252e3b"
       id="path677" />
    <path
       d="m -900,324.5 c 27.9,-21 55.8,-42 89.7,-48.5 33.8,-6.4 73.6,1.7 101,-13.5 27.5,-15.2 42.5,-53.7 50.8,-87 8.3,-33.3 9.7,-61.4 22.4,-89.7 12.7,-28.4 36.7,-57.1 60.6,-85.8 H -900 Z"
       fill="#1f2936"
       id="path679" />
    <path
       d="m -900,270.4 c 23.3,-17.5 46.5,-35 74.7,-40.4 28.3,-5.3 61.4,1.4 84.2,-11.2 22.9,-12.7 35.5,-44.8 42.3,-72.6 6.9,-27.7 8.1,-51.1 18.7,-74.7 10.6,-23.7 30.6,-47.6 50.5,-71.5 H -900 Z"
       fill="#182330"
       id="path681" />
    <path
       d="m -900,216.3 c 18.6,-14 37.2,-28 59.8,-32.3 22.6,-4.3 49.1,1.2 67.4,-9 18.2,-10.1 28.3,-35.8 33.8,-58 5.5,-22.2 6.5,-40.9 14.9,-59.8 8.5,-18.9 24.5,-38.1 40.4,-57.2 H -900 Z"
       fill="#121e2b"
       id="path683" />
    <path
       d="m -900,162.2 c 14,-10.5 27.9,-21 44.8,-24.2 17,-3.2 36.9,0.9 50.6,-6.7 13.7,-7.6 21.2,-26.9 25.3,-43.6 4.2,-16.6 4.9,-30.6 11.3,-44.8 6.3,-14.2 18.3,-28.6 30.2,-42.9 H -900 Z"
       fill="#0c1926"
       id="path685" />
    <path
       d="m -900,108.2 c 9.3,-7 18.6,-14 29.9,-16.2 11.3,-2.1 24.5,0.6 33.7,-4.5 9.1,-5.1 14.1,-17.9 16.9,-29 2.8,-11.1 3.2,-20.5 7.5,-29.9 4.2,-9.5 12.2,-19 20.2,-28.6 H -900 Z"
       fill="#041320"
       id="path687" />
    <path
       d="m -900,54.1 c 4.7,-3.5 9.3,-7 14.9,-8.1 5.7,-1.1 12.3,0.3 16.9,-2.2 4.6,-2.6 7.1,-9 8.4,-14.6 1.4,-5.5 1.7,-10.2 3.8,-14.9 2.1,-4.7 6.1,-9.5 10.1,-14.3 H -900 Z"
       fill="#00101e"
       id="path689" />
  </g>
  <g
     transform="matrix(-1,0,0,1,900,600)"
     id="g709">
    <path
       d="m 0,-432.7 c 37.5,29.4 75,58.8 118.4,68.4 43.3,9.7 92.4,-0.3 135.9,14.3 43.5,14.5 81.4,53.7 92,98.4 10.5,44.8 -6.2,95 3.7,137.9 9.8,42.8 46.3,78.3 82.7,113.7 H 0 Z"
       fill="#2b3441"
       id="path693" />
    <path
       d="m 0,-378.6 c 32.8,25.7 65.6,51.4 103.6,59.9 37.9,8.4 80.9,-0.3 118.9,12.4 38.1,12.8 71.2,47 80.5,86.2 9.2,39.1 -5.4,83.1 3.2,120.6 8.7,37.5 40.5,68.5 72.4,99.5 H 0 Z"
       fill="#252e3b"
       id="path695" />
    <path
       d="m 0,-324.5 c 28.1,22 56.3,44.1 88.8,51.3 32.5,7.3 69.3,-0.3 101.9,10.7 32.7,10.9 61.1,40.3 69,73.8 7.9,33.6 -4.6,71.3 2.8,103.4 7.4,32.2 34.7,58.7 62,85.3 H 0 Z"
       fill="#1f2936"
       id="path697" />
    <path
       d="m 0,-270.4 c 23.4,18.3 46.9,36.7 74,42.7 27,6.1 57.8,-0.2 84.9,8.9 27.2,9.1 50.9,33.6 57.5,61.6 6.6,27.9 -3.8,59.3 2.3,86.1 6.2,26.8 29,49 51.7,71.1 H 0 Z"
       fill="#182330"
       id="path699" />
    <path
       d="m 0,-216.3 c 18.8,14.7 37.5,29.3 59.2,34.2 21.6,4.8 46.2,-0.2 68,7.1 21.7,7.3 40.6,26.9 45.9,49.2 5.3,22.4 -3,47.5 1.9,68.9 4.9,21.5 23.1,39.2 41.3,56.9 H 0 Z"
       fill="#121e2b"
       id="path701" />
    <path
       d="m 0,-162.2 c 14.1,11 28.1,22 44.4,25.6 16.2,3.6 34.7,-0.1 51,5.3 16.3,5.5 30.5,20.2 34.4,37 4,16.7 -2.2,35.6 1.4,51.7 3.7,16 17.4,29.3 31,42.6 H 0 Z"
       fill="#0c1926"
       id="path703" />
    <path
       d="m 0,-108.2 c 9.4,7.4 18.8,14.7 29.6,17.1 10.8,2.5 23.1,-0.1 34,3.6 10.9,3.6 20.3,13.4 23,24.6 2.6,11.2 -1.6,23.8 0.9,34.5 C 90,-17.7 99.1,-8.9 108.2,0 H 0 Z"
       fill="#041320"
       id="path705" />
    <path
       d="m 0,-54.1 c 4.7,3.7 9.4,7.4 14.8,8.6 5.4,1.2 11.6,-0.1 17,1.7 5.4,1.9 10.2,6.8 11.5,12.4 1.3,5.5 -0.8,11.8 0.4,17.2 1.3,5.3 5.8,9.8 10.4,14.2 H 0 Z"
       fill="#00101e"
       id="path707" />
  </g>
  <g
     transform="translate(900,600)"
     id="g882">
    <path
       d="m 0,432.7 c -37.2,-28 -74.5,-56.1 -119.6,-64.6 -45.1,-8.6 -98.2,2.2 -134.7,-18.1 C -290.9,329.7 -311,278.3 -322,233.9 -333,189.5 -335,152.2 -351.9,114.3 -368.8,76.5 -400.7,38.3 -432.7,0 H 0 Z"
       fill="#2b3441"
       id="path866" />
    <path
       d="m 0,378.6 c -32.6,-24.5 -65.2,-49 -104.6,-56.5 -39.5,-7.6 -85.9,1.9 -117.9,-15.8 -32,-17.8 -49.6,-62.8 -59.2,-101.6 -9.7,-38.9 -11.4,-71.6 -26.2,-104.7 C -322.7,67 -350.7,33.5 -378.6,0 H 0 Z"
       fill="#252e3b"
       id="path868" />
    <path
       d="m 0,324.5 c -27.9,-21 -55.8,-42 -89.7,-48.5 -33.8,-6.4 -73.6,1.7 -101,-13.5 -27.5,-15.2 -42.5,-53.7 -50.8,-87 -8.3,-33.3 -9.7,-61.4 -22.4,-89.7 C -276.6,57.4 -300.6,28.7 -324.5,0 H 0 Z"
       fill="#1f2936"
       id="path870" />
    <path
       d="m 0,270.4 c -23.3,-17.5 -46.5,-35 -74.7,-40.4 -28.3,-5.3 -61.4,1.4 -84.2,-11.2 -22.9,-12.7 -35.5,-44.8 -42.3,-72.6 -6.9,-27.7 -8.1,-51.1 -18.7,-74.7 C -230.5,47.8 -250.5,23.9 -270.4,0 H 0 Z"
       fill="#182330"
       id="path872" />
    <path
       d="m 0,216.3 c -18.6,-14 -37.2,-28 -59.8,-32.3 -22.6,-4.3 -49.1,1.2 -67.4,-9 -18.2,-10.1 -28.3,-35.8 -33.8,-58 -5.5,-22.2 -6.5,-40.9 -14.9,-59.8 C -184.4,38.3 -200.4,19.1 -216.3,0 H 0 Z"
       fill="#121e2b"
       id="path874" />
    <path
       d="m 0,162.2 c -14,-10.5 -27.9,-21 -44.8,-24.2 -17,-3.2 -36.9,0.9 -50.6,-6.7 -13.7,-7.6 -21.2,-26.9 -25.3,-43.6 C -124.9,71.1 -125.6,57.1 -132,42.9 -138.3,28.7 -150.3,14.3 -162.2,0 H 0 Z"
       fill="#0c1926"
       id="path876" />
    <path
       d="m 0,108.2 c -9.3,-7 -18.6,-14 -29.9,-16.2 -11.3,-2.1 -24.5,0.6 -33.7,-4.5 -9.1,-5.1 -14.1,-17.9 -16.9,-29 C -83.3,47.4 -83.7,38 -88,28.6 -92.2,19.1 -100.2,9.6 -108.2,0 H 0 Z"
       fill="#041320"
       id="path878" />
    <path
       d="m 0,54.1 c -4.7,-3.5 -9.3,-7 -14.9,-8.1 -5.7,-1.1 -12.3,0.3 -16.9,-2.2 -4.6,-2.6 -7.1,-9 -8.4,-14.6 C -41.6,23.7 -41.9,19 -44,14.3 -46.1,9.6 -50.1,4.8 -54.1,0 H 0 Z"
       fill="#00101e"
       id="path880" />
  </g>
  <g
     transform="translate(0,1200)"
     id="g900">
    <path
       d="m 0,-432.7 c 37.5,29.4 75,58.8 118.4,68.4 43.3,9.7 92.4,-0.3 135.9,14.3 43.5,14.5 81.4,53.7 92,98.4 10.5,44.8 -6.2,95 3.7,137.9 9.8,42.8 46.3,78.3 82.7,113.7 H 0 Z"
       fill="#2b3441"
       id="path884" />
    <path
       d="m 0,-378.6 c 32.8,25.7 65.6,51.4 103.6,59.9 37.9,8.4 80.9,-0.3 118.9,12.4 38.1,12.8 71.2,47 80.5,86.2 9.2,39.1 -5.4,83.1 3.2,120.6 8.7,37.5 40.5,68.5 72.4,99.5 H 0 Z"
       fill="#252e3b"
       id="path886" />
    <path
       d="m 0,-324.5 c 28.1,22 56.3,44.1 88.8,51.3 32.5,7.3 69.3,-0.3 101.9,10.7 32.7,10.9 61.1,40.3 69,73.8 7.9,33.6 -4.6,71.3 2.8,103.4 7.4,32.2 34.7,58.7 62,85.3 H 0 Z"
       fill="#1f2936"
       id="path888" />
    <path
       d="m 0,-270.4 c 23.4,18.3 46.9,36.7 74,42.7 27,6.1 57.8,-0.2 84.9,8.9 27.2,9.1 50.9,33.6 57.5,61.6 6.6,27.9 -3.8,59.3 2.3,86.1 6.2,26.8 29,49 51.7,71.1 H 0 Z"
       fill="#182330"
       id="path890" />
    <path
       d="m 0,-216.3 c 18.8,14.7 37.5,29.3 59.2,34.2 21.6,4.8 46.2,-0.2 68,7.1 21.7,7.3 40.6,26.9 45.9,49.2 5.3,22.4 -3,47.5 1.9,68.9 4.9,21.5 23.1,39.2 41.3,56.9 H 0 Z"
       fill="#121e2b"
       id="path892" />
    <path
       d="m 0,-162.2 c 14.1,11 28.1,22 44.4,25.6 16.2,3.6 34.7,-0.1 51,5.3 16.3,5.5 30.5,20.2 34.4,37 4,16.7 -2.2,35.6 1.4,51.7 3.7,16 17.4,29.3 31,42.6 H 0 Z"
       fill="#0c1926"
       id="path894" />
    <path
       d="m 0,-108.2 c 9.4,7.4 18.8,14.7 29.6,17.1 10.8,2.5 23.1,-0.1 34,3.6 10.9,3.6 20.3,13.4 23,24.6 2.6,11.2 -1.6,23.8 0.9,34.5 C 90,-17.7 99.1,-8.9 108.2,0 H 0 Z"
       fill="#041320"
       id="path896" />
    <path
       d="m 0,-54.1 c 4.7,3.7 9.4,7.4 14.8,8.6 5.4,1.2 11.6,-0.1 17,1.7 5.4,1.9 10.2,6.8 11.5,12.4 1.3,5.5 -0.8,11.8 0.4,17.2 1.3,5.3 5.8,9.8 10.4,14.2 H 0 Z"
       fill="#00101e"
       id="path898" />
  </g>
</svg>
