<svg id="visual" viewBox="0 0 960 540" width="960" height="540" xmlns="http://www.w3.org/2000/svg" xmlns:xlink="http://www.w3.org/1999/xlink" version="1.1"><rect x="0" y="0" width="960" height="540" fill="#87878b"></rect><defs><linearGradient id="grad1_0" x1="43.8%" y1="0%" x2="100%" y2="100%"><stop offset="14.444444444444446%" stop-color="#001220" stop-opacity="1"></stop><stop offset="85.55555555555554%" stop-color="#001220" stop-opacity="1"></stop></linearGradient></defs><defs><linearGradient id="grad1_1" x1="43.8%" y1="0%" x2="100%" y2="100%"><stop offset="14.444444444444446%" stop-color="#001220" stop-opacity="1"></stop><stop offset="85.55555555555554%" stop-color="#16212e" stop-opacity="1"></stop></linearGradient></defs><defs><linearGradient id="grad1_2" x1="43.8%" y1="0%" x2="100%" y2="100%"><stop offset="14.444444444444446%" stop-color="#28303c" stop-opacity="1"></stop><stop offset="85.55555555555554%" stop-color="#16212e" stop-opacity="1"></stop></linearGradient></defs><defs><linearGradient id="grad1_3" x1="43.8%" y1="0%" x2="100%" y2="100%"><stop offset="14.444444444444446%" stop-color="#28303c" stop-opacity="1"></stop><stop offset="85.55555555555554%" stop-color="#3b404b" stop-opacity="1"></stop></linearGradient></defs><defs><linearGradient id="grad1_4" x1="43.8%" y1="0%" x2="100%" y2="100%"><stop offset="14.444444444444446%" stop-color="#4d515a" stop-opacity="1"></stop><stop offset="85.55555555555554%" stop-color="#3b404b" stop-opacity="1"></stop></linearGradient></defs><defs><linearGradient id="grad1_5" x1="43.8%" y1="0%" x2="100%" y2="100%"><stop offset="14.444444444444446%" stop-color="#4d515a" stop-opacity="1"></stop><stop offset="85.55555555555554%" stop-color="#60626a" stop-opacity="1"></stop></linearGradient></defs><defs><linearGradient id="grad1_6" x1="43.8%" y1="0%" x2="100%" y2="100%"><stop offset="14.444444444444446%" stop-color="#74747a" stop-opacity="1"></stop><stop offset="85.55555555555554%" stop-color="#60626a" stop-opacity="1"></stop></linearGradient></defs><defs><linearGradient id="grad1_7" x1="43.8%" y1="0%" x2="100%" y2="100%"><stop offset="14.444444444444446%" stop-color="#74747a" stop-opacity="1"></stop><stop offset="85.55555555555554%" stop-color="#87878b" stop-opacity="1"></stop></linearGradient></defs><defs><linearGradient id="grad2_0" x1="0%" y1="0%" x2="56.3%" y2="100%"><stop offset="14.444444444444446%" stop-color="#001220" stop-opacity="1"></stop><stop offset="85.55555555555554%" stop-color="#001220" stop-opacity="1"></stop></linearGradient></defs><defs><linearGradient id="grad2_1" x1="0%" y1="0%" x2="56.3%" y2="100%"><stop offset="14.444444444444446%" stop-color="#16212e" stop-opacity="1"></stop><stop offset="85.55555555555554%" stop-color="#001220" stop-opacity="1"></stop></linearGradient></defs><defs><linearGradient id="grad2_2" x1="0%" y1="0%" x2="56.3%" y2="100%"><stop offset="14.444444444444446%" stop-color="#16212e" stop-opacity="1"></stop><stop offset="85.55555555555554%" stop-color="#28303c" stop-opacity="1"></stop></linearGradient></defs><defs><linearGradient id="grad2_3" x1="0%" y1="0%" x2="56.3%" y2="100%"><stop offset="14.444444444444446%" stop-color="#3b404b" stop-opacity="1"></stop><stop offset="85.55555555555554%" stop-color="#28303c" stop-opacity="1"></stop></linearGradient></defs><defs><linearGradient id="grad2_4" x1="0%" y1="0%" x2="56.3%" y2="100%"><stop offset="14.444444444444446%" stop-color="#3b404b" stop-opacity="1"></stop><stop offset="85.55555555555554%" stop-color="#4d515a" stop-opacity="1"></stop></linearGradient></defs><defs><linearGradient id="grad2_5" x1="0%" y1="0%" x2="56.3%" y2="100%"><stop offset="14.444444444444446%" stop-color="#60626a" stop-opacity="1"></stop><stop offset="85.55555555555554%" stop-color="#4d515a" stop-opacity="1"></stop></linearGradient></defs><defs><linearGradient id="grad2_6" x1="0%" y1="0%" x2="56.3%" y2="100%"><stop offset="14.444444444444446%" stop-color="#60626a" stop-opacity="1"></stop><stop offset="85.55555555555554%" stop-color="#74747a" stop-opacity="1"></stop></linearGradient></defs><defs><linearGradient id="grad2_7" x1="0%" y1="0%" x2="56.3%" y2="100%"><stop offset="14.444444444444446%" stop-color="#87878b" stop-opacity="1"></stop><stop offset="85.55555555555554%" stop-color="#74747a" stop-opacity="1"></stop></linearGradient></defs><g transform="translate(960, 0)"><path d="M0 459C-52.8 438.4 -105.5 417.8 -165.7 400C-225.9 382.3 -293.4 367.5 -324.6 324.6C-355.7 281.7 -350.4 210.7 -366.8 151.9C-383.1 93.2 -421.1 46.6 -459 0L0 0Z" fill="#7d7e83"></path><path d="M0 401.6C-46.2 383.6 -92.3 365.5 -145 350C-197.6 334.5 -256.7 321.5 -284 284C-311.2 246.5 -306.6 184.4 -320.9 132.9C-335.2 81.5 -368.4 40.8 -401.6 0L0 0Z" fill="#6a6b72"></path><path d="M0 344.3C-39.6 328.8 -79.2 313.3 -124.3 300C-169.4 286.7 -220.1 275.6 -243.4 243.4C-266.8 211.2 -262.8 158 -275.1 113.9C-287.3 69.9 -315.8 34.9 -344.2 0L0 0Z" fill="#575962"></path><path d="M0 286.9C-33 274 -66 261.1 -103.6 250C-141.2 238.9 -183.4 229.7 -202.9 202.9C-222.3 176 -219 131.7 -229.2 95C-239.4 58.2 -263.2 29.1 -286.9 0L0 0Z" fill="#444853"></path><path d="M0 229.5C-26.4 219.2 -52.8 208.9 -82.9 200C-112.9 191.2 -146.7 183.7 -162.3 162.3C-177.9 140.8 -175.2 105.3 -183.4 76C-191.6 46.6 -210.5 23.3 -229.5 0L0 0Z" fill="#313844"></path><path d="M0 172.1C-19.8 164.4 -39.6 156.7 -62.1 150C-84.7 143.4 -110 137.8 -121.7 121.7C-133.4 105.6 -131.4 79 -137.5 57C-143.7 34.9 -157.9 17.5 -172.1 0L0 0Z" fill="#1f2835"></path><path d="M0 114.8C-13.2 109.6 -26.4 104.4 -41.4 100C-56.5 95.6 -73.4 91.9 -81.1 81.1C-88.9 70.4 -87.6 52.7 -91.7 38C-95.8 23.3 -105.3 11.6 -114.7 0L0 0Z" fill="#0c1a27"></path><path d="M0 57.4C-6.6 54.8 -13.2 52.2 -20.7 50C-28.2 47.8 -36.7 45.9 -40.6 40.6C-44.5 35.2 -43.8 26.3 -45.8 19C-47.9 11.6 -52.6 5.8 -57.4 0L0 0Z" fill="#001220"></path></g><g transform="translate(0, 540)"><path d="M0 -459C59 -452.2 118.1 -445.5 175.7 -424.1C233.2 -402.6 289.3 -366.6 317.5 -317.5C345.7 -268.4 346 -206.2 364.9 -151.2C383.9 -96.1 421.4 -48 459 0L0 0Z" fill="#7d7e83"></path><path d="M0 -401.6C51.7 -395.7 103.3 -389.8 153.7 -371.1C204.1 -352.3 253.1 -320.8 277.8 -277.8C302.5 -234.8 302.7 -180.5 319.3 -132.3C335.9 -84.1 368.8 -42 401.6 0L0 0Z" fill="#6a6b72"></path><path d="M0 -344.2C44.3 -339.2 88.6 -334.1 131.7 -318C174.9 -302 217 -274.9 238.1 -238.1C259.3 -201.3 259.5 -154.7 273.7 -113.4C287.9 -72.1 316.1 -36 344.3 0L0 0Z" fill="#575962"></path><path d="M0 -286.9C36.9 -282.6 73.8 -278.4 109.8 -265C145.8 -251.7 180.8 -229.1 198.4 -198.4C216.1 -167.7 216.2 -128.9 228.1 -94.5C239.9 -60 263.4 -30 286.9 0L0 0Z" fill="#444853"></path><path d="M0 -229.5C29.5 -226.1 59 -222.7 87.8 -212C116.6 -201.3 144.6 -183.3 158.7 -158.7C172.8 -134.2 173 -103.1 182.5 -75.6C191.9 -48 210.7 -24 229.5 0L0 0Z" fill="#313844"></path><path d="M0 -172.1C22.1 -169.6 44.3 -167.1 65.9 -159C87.5 -151 108.5 -137.5 119.1 -119.1C129.6 -100.6 129.7 -77.3 136.8 -56.7C144 -36 158 -18 172.1 0L0 0Z" fill="#1f2835"></path><path d="M0 -114.7C14.8 -113.1 29.5 -111.4 43.9 -106C58.3 -100.7 72.3 -91.6 79.4 -79.4C86.4 -67.1 86.5 -51.6 91.2 -37.8C96 -24 105.4 -12 114.8 0L0 0Z" fill="#0c1a27"></path><path d="M0 -57.4C7.4 -56.5 14.8 -55.7 22 -53C29.2 -50.3 36.2 -45.8 39.7 -39.7C43.2 -33.5 43.2 -25.8 45.6 -18.9C48 -12 52.7 -6 57.4 0L0 0Z" fill="#001220"></path></g></svg>