<svg id="visual" viewBox="0 0 900 450" width="900" height="450" xmlns="http://www.w3.org/2000/svg" xmlns:xlink="http://www.w3.org/1999/xlink" version="1.1"><rect x="0" y="0" width="900" height="450" fill="#87878b"></rect><defs><linearGradient id="grad1_0" x1="50%" y1="0%" x2="100%" y2="100%"><stop offset="10%" stop-color="#001122" stop-opacity="1"></stop><stop offset="90%" stop-color="#001122" stop-opacity="1"></stop></linearGradient></defs><defs><linearGradient id="grad1_1" x1="50%" y1="0%" x2="100%" y2="100%"><stop offset="10%" stop-color="#001122" stop-opacity="1"></stop><stop offset="90%" stop-color="#152030" stop-opacity="1"></stop></linearGradient></defs><defs><linearGradient id="grad1_2" x1="50%" y1="0%" x2="100%" y2="100%"><stop offset="10%" stop-color="#282f3e" stop-opacity="1"></stop><stop offset="90%" stop-color="#152030" stop-opacity="1"></stop></linearGradient></defs><defs><linearGradient id="grad1_3" x1="50%" y1="0%" x2="100%" y2="100%"><stop offset="10%" stop-color="#282f3e" stop-opacity="1"></stop><stop offset="90%" stop-color="#3b3f4c" stop-opacity="1"></stop></linearGradient></defs><defs><linearGradient id="grad1_4" x1="50%" y1="0%" x2="100%" y2="100%"><stop offset="10%" stop-color="#4d505b" stop-opacity="1"></stop><stop offset="90%" stop-color="#3b3f4c" stop-opacity="1"></stop></linearGradient></defs><defs><linearGradient id="grad1_5" x1="50%" y1="0%" x2="100%" y2="100%"><stop offset="10%" stop-color="#4d505b" stop-opacity="1"></stop><stop offset="90%" stop-color="#60626b" stop-opacity="1"></stop></linearGradient></defs><defs><linearGradient id="grad1_6" x1="50%" y1="0%" x2="100%" y2="100%"><stop offset="10%" stop-color="#74747b" stop-opacity="1"></stop><stop offset="90%" stop-color="#60626b" stop-opacity="1"></stop></linearGradient></defs><defs><linearGradient id="grad1_7" x1="50%" y1="0%" x2="100%" y2="100%"><stop offset="10%" stop-color="#74747b" stop-opacity="1"></stop><stop offset="90%" stop-color="#87878b" stop-opacity="1"></stop></linearGradient></defs><defs><linearGradient id="grad2_0" x1="0%" y1="0%" x2="50%" y2="100%"><stop offset="10%" stop-color="#001122" stop-opacity="1"></stop><stop offset="90%" stop-color="#001122" stop-opacity="1"></stop></linearGradient></defs><defs><linearGradient id="grad2_1" x1="0%" y1="0%" x2="50%" y2="100%"><stop offset="10%" stop-color="#152030" stop-opacity="1"></stop><stop offset="90%" stop-color="#001122" stop-opacity="1"></stop></linearGradient></defs><defs><linearGradient id="grad2_2" x1="0%" y1="0%" x2="50%" y2="100%"><stop offset="10%" stop-color="#152030" stop-opacity="1"></stop><stop offset="90%" stop-color="#282f3e" stop-opacity="1"></stop></linearGradient></defs><defs><linearGradient id="grad2_3" x1="0%" y1="0%" x2="50%" y2="100%"><stop offset="10%" stop-color="#3b3f4c" stop-opacity="1"></stop><stop offset="90%" stop-color="#282f3e" stop-opacity="1"></stop></linearGradient></defs><defs><linearGradient id="grad2_4" x1="0%" y1="0%" x2="50%" y2="100%"><stop offset="10%" stop-color="#3b3f4c" stop-opacity="1"></stop><stop offset="90%" stop-color="#4d505b" stop-opacity="1"></stop></linearGradient></defs><defs><linearGradient id="grad2_5" x1="0%" y1="0%" x2="50%" y2="100%"><stop offset="10%" stop-color="#60626b" stop-opacity="1"></stop><stop offset="90%" stop-color="#4d505b" stop-opacity="1"></stop></linearGradient></defs><defs><linearGradient id="grad2_6" x1="0%" y1="0%" x2="50%" y2="100%"><stop offset="10%" stop-color="#60626b" stop-opacity="1"></stop><stop offset="90%" stop-color="#74747b" stop-opacity="1"></stop></linearGradient></defs><defs><linearGradient id="grad2_7" x1="0%" y1="0%" x2="50%" y2="100%"><stop offset="10%" stop-color="#87878b" stop-opacity="1"></stop><stop offset="90%" stop-color="#74747b" stop-opacity="1"></stop></linearGradient></defs><g transform="translate(900, 0)"><path d="M0 382.5C-41.1 379.4 -82.3 376.3 -116.8 359.5C-151.3 342.7 -179.3 312.3 -208.7 287.2C-238.1 262.1 -268.9 242.4 -296.9 215.7C-324.9 189 -350 155.3 -363.8 118.2C-377.6 81.1 -380 40.5 -382.5 0L0 0Z" fill="#7d7d83"></path><path d="M0 334.7C-36 332 -72 329.2 -102.2 314.6C-132.4 299.9 -156.9 273.2 -182.6 251.3C-208.3 229.4 -235.3 212.1 -259.8 188.8C-284.3 165.4 -306.2 135.9 -318.3 103.4C-330.4 70.9 -332.5 35.5 -334.7 0L0 0Z" fill="#6a6b73"></path><path d="M0 286.9C-30.9 284.5 -61.7 282.2 -87.6 269.6C-113.5 257 -134.5 234.2 -156.5 215.4C-178.5 196.6 -201.7 181.8 -222.7 161.8C-243.7 141.8 -262.5 116.5 -272.8 88.6C-283.2 60.8 -285 30.4 -286.9 0L0 0Z" fill="#575963"></path><path d="M0 239.1C-25.7 237.1 -51.4 235.2 -73 224.7C-94.6 214.2 -112 195.2 -130.4 179.5C-148.8 163.8 -168.1 151.5 -185.6 134.8C-203.1 118.1 -218.7 97.1 -227.4 73.9C-236 50.7 -237.5 25.3 -239.1 0L0 0Z" fill="#444854"></path><path d="M0 191.3C-20.6 189.7 -41.1 188.1 -58.4 179.7C-75.7 171.4 -89.6 156.1 -104.3 143.6C-119 131.1 -134.5 121.2 -148.5 107.9C-162.4 94.5 -175 77.7 -181.9 59.1C-188.8 40.5 -190 20.3 -191.2 0L0 0Z" fill="#313745"></path><path d="M0 143.4C-15.4 142.3 -30.9 141.1 -43.8 134.8C-56.8 128.5 -67.2 117.1 -78.2 107.7C-89.3 98.3 -100.8 90.9 -111.3 80.9C-121.8 70.9 -131.2 58.2 -136.4 44.3C-141.6 30.4 -142.5 15.2 -143.4 0L0 0Z" fill="#1f2837"></path><path d="M0 95.6C-10.3 94.8 -20.6 94.1 -29.2 89.9C-37.8 85.7 -44.8 78.1 -52.2 71.8C-59.5 65.5 -67.2 60.6 -74.2 53.9C-81.2 47.3 -87.5 38.8 -90.9 29.5C-94.4 20.3 -95 10.1 -95.6 0L0 0Z" fill="#0c1929"></path><path d="M0 47.8C-5.1 47.4 -10.3 47 -14.6 44.9C-18.9 42.8 -22.4 39 -26.1 35.9C-29.8 32.8 -33.6 30.3 -37.1 27C-40.6 23.6 -43.7 19.4 -45.5 14.8C-47.2 10.1 -47.5 5.1 -47.8 0L0 0Z" fill="#001122"></path></g><g transform="translate(0, 450)"><path d="M0 -382.5C32.6 -350.3 65.1 -318 98.6 -303.4C132 -288.8 166.4 -291.8 206.3 -284C246.2 -276.1 291.6 -257.5 309.4 -224.8C327.3 -192.2 317.7 -145.5 325.3 -105.7C332.9 -65.9 357.7 -32.9 382.5 0L0 0Z" fill="#7d7d83"></path><path d="M0 -334.7C28.5 -306.5 57 -278.3 86.3 -265.5C115.5 -252.7 145.6 -255.3 180.5 -248.5C215.4 -241.6 255.1 -225.3 270.8 -196.7C286.4 -168.1 278 -127.3 284.6 -92.5C291.2 -57.6 313 -28.8 334.7 0L0 0Z" fill="#6a6b73"></path><path d="M0 -286.9C24.4 -262.7 48.8 -238.5 73.9 -227.5C99 -216.6 124.8 -218.8 154.7 -213C184.6 -207.1 218.7 -193.1 232.1 -168.6C245.5 -144.1 238.3 -109.1 243.9 -79.3C249.6 -49.4 268.3 -24.7 286.9 0L0 0Z" fill="#575963"></path><path d="M0 -239.1C20.3 -218.9 40.7 -198.8 61.6 -189.6C82.5 -180.5 104 -182.4 128.9 -177.5C153.9 -172.6 182.2 -160.9 193.4 -140.5C204.6 -120.1 198.5 -90.9 203.3 -66.1C208 -41.2 223.5 -20.6 239.1 0L0 0Z" fill="#444854"></path><path d="M0 -191.2C16.3 -175.1 32.6 -159 49.3 -151.7C66 -144.4 83.2 -145.9 103.2 -142C123.1 -138.1 145.8 -128.7 154.7 -112.4C163.7 -96.1 158.8 -72.7 162.6 -52.8C166.4 -32.9 178.8 -16.5 191.3 0L0 0Z" fill="#313745"></path><path d="M0 -143.4C12.2 -131.3 24.4 -119.3 37 -113.8C49.5 -108.3 62.4 -109.4 77.4 -106.5C92.3 -103.6 109.3 -96.6 116 -84.3C122.7 -72.1 119.1 -54.6 122 -39.6C124.8 -24.7 134.1 -12.4 143.4 0L0 0Z" fill="#1f2837"></path><path d="M0 -95.6C8.1 -87.6 16.3 -79.5 24.6 -75.8C33 -72.2 41.6 -72.9 51.6 -71C61.5 -69 72.9 -64.4 77.4 -56.2C81.8 -48 79.4 -36.4 81.3 -26.4C83.2 -16.5 89.4 -8.2 95.6 0L0 0Z" fill="#0c1929"></path><path d="M0 -47.8C4.1 -43.8 8.1 -39.8 12.3 -37.9C16.5 -36.1 20.8 -36.5 25.8 -35.5C30.8 -34.5 36.4 -32.2 38.7 -28.1C40.9 -24 39.7 -18.2 40.7 -13.2C41.6 -8.2 44.7 -4.1 47.8 0L0 0Z" fill="#001122"></path></g></svg>