<svg id="visual" viewBox="0 0 900 450" width="900" height="450" xmlns="http://www.w3.org/2000/svg" xmlns:xlink="http://www.w3.org/1999/xlink" version="1.1"><rect x="0" y="0" width="900" height="450" fill="#87878b"></rect><defs><linearGradient id="grad1_0" x1="50%" y1="0%" x2="100%" y2="100%"><stop offset="10%" stop-color="#001122" stop-opacity="1"></stop><stop offset="90%" stop-color="#001122" stop-opacity="1"></stop></linearGradient></defs><defs><linearGradient id="grad1_1" x1="50%" y1="0%" x2="100%" y2="100%"><stop offset="10%" stop-color="#001122" stop-opacity="1"></stop><stop offset="90%" stop-color="#152030" stop-opacity="1"></stop></linearGradient></defs><defs><linearGradient id="grad1_2" x1="50%" y1="0%" x2="100%" y2="100%"><stop offset="10%" stop-color="#282f3e" stop-opacity="1"></stop><stop offset="90%" stop-color="#152030" stop-opacity="1"></stop></linearGradient></defs><defs><linearGradient id="grad1_3" x1="50%" y1="0%" x2="100%" y2="100%"><stop offset="10%" stop-color="#282f3e" stop-opacity="1"></stop><stop offset="90%" stop-color="#3b3f4c" stop-opacity="1"></stop></linearGradient></defs><defs><linearGradient id="grad1_4" x1="50%" y1="0%" x2="100%" y2="100%"><stop offset="10%" stop-color="#4d505b" stop-opacity="1"></stop><stop offset="90%" stop-color="#3b3f4c" stop-opacity="1"></stop></linearGradient></defs><defs><linearGradient id="grad1_5" x1="50%" y1="0%" x2="100%" y2="100%"><stop offset="10%" stop-color="#4d505b" stop-opacity="1"></stop><stop offset="90%" stop-color="#60626b" stop-opacity="1"></stop></linearGradient></defs><defs><linearGradient id="grad1_6" x1="50%" y1="0%" x2="100%" y2="100%"><stop offset="10%" stop-color="#74747b" stop-opacity="1"></stop><stop offset="90%" stop-color="#60626b" stop-opacity="1"></stop></linearGradient></defs><defs><linearGradient id="grad1_7" x1="50%" y1="0%" x2="100%" y2="100%"><stop offset="10%" stop-color="#74747b" stop-opacity="1"></stop><stop offset="90%" stop-color="#87878b" stop-opacity="1"></stop></linearGradient></defs><defs><linearGradient id="grad2_0" x1="0%" y1="0%" x2="50%" y2="100%"><stop offset="10%" stop-color="#001122" stop-opacity="1"></stop><stop offset="90%" stop-color="#001122" stop-opacity="1"></stop></linearGradient></defs><defs><linearGradient id="grad2_1" x1="0%" y1="0%" x2="50%" y2="100%"><stop offset="10%" stop-color="#152030" stop-opacity="1"></stop><stop offset="90%" stop-color="#001122" stop-opacity="1"></stop></linearGradient></defs><defs><linearGradient id="grad2_2" x1="0%" y1="0%" x2="50%" y2="100%"><stop offset="10%" stop-color="#152030" stop-opacity="1"></stop><stop offset="90%" stop-color="#282f3e" stop-opacity="1"></stop></linearGradient></defs><defs><linearGradient id="grad2_3" x1="0%" y1="0%" x2="50%" y2="100%"><stop offset="10%" stop-color="#3b3f4c" stop-opacity="1"></stop><stop offset="90%" stop-color="#282f3e" stop-opacity="1"></stop></linearGradient></defs><defs><linearGradient id="grad2_4" x1="0%" y1="0%" x2="50%" y2="100%"><stop offset="10%" stop-color="#3b3f4c" stop-opacity="1"></stop><stop offset="90%" stop-color="#4d505b" stop-opacity="1"></stop></linearGradient></defs><defs><linearGradient id="grad2_5" x1="0%" y1="0%" x2="50%" y2="100%"><stop offset="10%" stop-color="#60626b" stop-opacity="1"></stop><stop offset="90%" stop-color="#4d505b" stop-opacity="1"></stop></linearGradient></defs><defs><linearGradient id="grad2_6" x1="0%" y1="0%" x2="50%" y2="100%"><stop offset="10%" stop-color="#60626b" stop-opacity="1"></stop><stop offset="90%" stop-color="#74747b" stop-opacity="1"></stop></linearGradient></defs><defs><linearGradient id="grad2_7" x1="0%" y1="0%" x2="50%" y2="100%"><stop offset="10%" stop-color="#87878b" stop-opacity="1"></stop><stop offset="90%" stop-color="#74747b" stop-opacity="1"></stop></linearGradient></defs><g transform="translate(900, 0)"><path d="M0 367C-34.1 371.2 -68.1 375.3 -98.1 366.1C-128.1 356.8 -153.9 334.1 -185.5 321.3C-217.1 308.5 -254.4 305.4 -289.9 289.9C-325.4 274.4 -359 246.3 -364.6 210.5C-370.2 174.7 -347.7 131.1 -353.5 94.7C-359.3 58.4 -393.4 29.2 -427.5 0L0 0Z" fill="#7d7d83"></path><path d="M0 321.1C-29.8 324.8 -59.6 328.4 -85.8 320.3C-112 312.2 -134.7 292.4 -162.3 281.1C-190 269.9 -222.6 267.3 -253.7 253.7C-284.7 240.1 -314.1 215.5 -319 184.2C-323.9 152.8 -304.3 114.7 -309.3 82.9C-314.4 51.1 -344.2 25.5 -374.1 0L0 0Z" fill="#6a6b73"></path><path d="M0 275.3C-25.5 278.4 -51.1 281.5 -73.6 274.6C-96 267.6 -115.4 250.6 -139.1 241C-162.8 231.3 -190.8 229.1 -217.4 217.4C-244 205.8 -269.3 184.7 -273.4 157.9C-277.6 131 -260.8 98.3 -265.1 71C-269.5 43.8 -295.1 21.9 -320.6 0L0 0Z" fill="#575963"></path><path d="M0 229.4C-21.3 232 -42.6 234.6 -61.3 228.8C-80 223 -96.2 208.8 -115.9 200.8C-135.7 192.8 -159 190.9 -181.2 181.2C-203.4 171.5 -224.4 153.9 -227.9 131.6C-231.4 109.2 -217.3 81.9 -221 59.2C-224.6 36.5 -245.9 18.2 -267.2 0L0 0Z" fill="#444854"></path><path d="M0 183.5C-17 185.6 -34.1 187.7 -49 183C-64 178.4 -77 167.1 -92.7 160.6C-108.5 154.2 -127.2 152.7 -145 145C-162.7 137.2 -179.5 123.2 -182.3 105.3C-185.1 87.3 -173.9 65.6 -176.8 47.4C-179.7 29.2 -196.7 14.6 -213.7 0L0 0Z" fill="#313745"></path><path d="M0 137.6C-12.8 139.2 -25.5 140.8 -36.8 137.3C-48 133.8 -57.7 125.3 -69.6 120.5C-81.4 115.7 -95.4 114.5 -108.7 108.7C-122 102.9 -134.6 92.4 -136.7 78.9C-138.8 65.5 -130.4 49.2 -132.6 35.5C-134.8 21.9 -147.5 10.9 -160.3 0L0 0Z" fill="#1f2837"></path><path d="M0 91.8C-8.5 92.8 -17 93.8 -24.5 91.5C-32 89.2 -38.5 83.5 -46.4 80.3C-54.3 77.1 -63.6 76.4 -72.5 72.5C-81.3 68.6 -89.8 61.6 -91.1 52.6C-92.5 43.7 -86.9 32.8 -88.4 23.7C-89.8 14.6 -98.4 7.3 -106.9 0L0 0Z" fill="#0c1929"></path><path d="M0 45.9C-4.3 46.4 -8.5 46.9 -12.3 45.8C-16 44.6 -19.2 41.8 -23.2 40.2C-27.1 38.6 -31.8 38.2 -36.2 36.2C-40.7 34.3 -44.9 30.8 -45.6 26.3C-46.3 21.8 -43.5 16.4 -44.2 11.8C-44.9 7.3 -49.2 3.6 -53.4 0L0 0Z" fill="#001122"></path></g><g transform="translate(0, 450)"><path d="M0 -390C37.6 -400.2 75.1 -410.3 107.4 -400.9C139.7 -391.4 166.7 -362.3 197 -341.2C227.3 -320.2 260.7 -307.2 285 -285C309.2 -262.7 324.2 -231.2 349 -201.5C373.8 -171.8 408.5 -143.9 412.9 -110.6C417.4 -77.4 391.7 -38.7 366 0L0 0Z" fill="#7d7d83"></path><path d="M0 -341.2C32.9 -350.1 65.7 -359 94 -350.8C122.2 -342.5 145.9 -317 172.4 -298.6C198.8 -280.1 228.1 -268.8 249.3 -249.3C270.5 -229.9 283.7 -202.3 305.4 -176.3C327.1 -150.3 357.4 -125.9 361.3 -96.8C365.2 -67.7 342.7 -33.8 320.3 0L0 0Z" fill="#6a6b73"></path><path d="M0 -292.5C28.2 -300.1 56.3 -307.8 80.6 -300.6C104.8 -293.5 125.1 -271.7 147.7 -255.9C170.4 -240.1 195.5 -230.4 213.7 -213.7C231.9 -197 243.1 -173.4 261.8 -151.1C280.4 -128.9 306.3 -107.9 309.7 -83C313.1 -58 293.8 -29 274.5 0L0 0Z" fill="#575963"></path><path d="M0 -243.7C23.5 -250.1 46.9 -256.5 67.1 -250.5C87.3 -244.6 104.2 -226.4 123.1 -213.3C142 -200.1 163 -192 178.1 -178.1C193.2 -164.2 202.6 -144.5 218.1 -125.9C233.6 -107.4 255.3 -90 258.1 -69.2C260.9 -48.4 244.8 -24.2 228.8 0L0 0Z" fill="#444854"></path><path d="M0 -195C18.8 -200.1 37.6 -205.2 53.7 -200.4C69.9 -195.7 83.4 -181.1 98.5 -170.6C113.6 -160.1 130.4 -153.6 142.5 -142.5C154.6 -131.4 162.1 -115.6 174.5 -100.8C186.9 -85.9 204.2 -72 206.5 -55.3C208.7 -38.7 195.9 -19.3 183 0L0 0Z" fill="#313745"></path><path d="M0 -146.2C14.1 -150.1 28.2 -153.9 40.3 -150.3C52.4 -146.8 62.5 -135.8 73.9 -128C85.2 -120.1 97.8 -115.2 106.9 -106.9C115.9 -98.5 121.6 -86.7 130.9 -75.6C140.2 -64.4 153.2 -54 154.8 -41.5C156.5 -29 146.9 -14.5 137.3 0L0 0Z" fill="#1f2837"></path><path d="M0 -97.5C9.4 -100 18.8 -102.6 26.9 -100.2C34.9 -97.8 41.7 -90.6 49.2 -85.3C56.8 -80 65.2 -76.8 71.2 -71.2C77.3 -65.7 81 -57.8 87.3 -50.4C93.5 -43 102.1 -36 103.2 -27.7C104.4 -19.3 97.9 -9.7 91.5 0L0 0Z" fill="#0c1929"></path><path d="M0 -48.7C4.7 -50 9.4 -51.3 13.4 -50.1C17.5 -48.9 20.8 -45.3 24.6 -42.7C28.4 -40 32.6 -38.4 35.6 -35.6C38.6 -32.8 40.5 -28.9 43.6 -25.2C46.7 -21.5 51.1 -18 51.6 -13.8C52.2 -9.7 49 -4.8 45.8 0L0 0Z" fill="#001122"></path></g></svg>