<svg id="visual" viewBox="0 0 600 300" width="600" height="300" xmlns="http://www.w3.org/2000/svg" xmlns:xlink="http://www.w3.org/1999/xlink" version="1.1"><rect x="0" y="0" width="600" height="300" fill="#87878b"></rect><defs><linearGradient id="grad1_0" x1="50%" y1="0%" x2="100%" y2="100%"><stop offset="10%" stop-color="#001220" stop-opacity="1"></stop><stop offset="90%" stop-color="#001220" stop-opacity="1"></stop></linearGradient></defs><defs><linearGradient id="grad1_1" x1="50%" y1="0%" x2="100%" y2="100%"><stop offset="10%" stop-color="#001220" stop-opacity="1"></stop><stop offset="90%" stop-color="#16212e" stop-opacity="1"></stop></linearGradient></defs><defs><linearGradient id="grad1_2" x1="50%" y1="0%" x2="100%" y2="100%"><stop offset="10%" stop-color="#28303c" stop-opacity="1"></stop><stop offset="90%" stop-color="#16212e" stop-opacity="1"></stop></linearGradient></defs><defs><linearGradient id="grad1_3" x1="50%" y1="0%" x2="100%" y2="100%"><stop offset="10%" stop-color="#28303c" stop-opacity="1"></stop><stop offset="90%" stop-color="#3b404b" stop-opacity="1"></stop></linearGradient></defs><defs><linearGradient id="grad1_4" x1="50%" y1="0%" x2="100%" y2="100%"><stop offset="10%" stop-color="#4d515a" stop-opacity="1"></stop><stop offset="90%" stop-color="#3b404b" stop-opacity="1"></stop></linearGradient></defs><defs><linearGradient id="grad1_5" x1="50%" y1="0%" x2="100%" y2="100%"><stop offset="10%" stop-color="#4d515a" stop-opacity="1"></stop><stop offset="90%" stop-color="#60626a" stop-opacity="1"></stop></linearGradient></defs><defs><linearGradient id="grad1_6" x1="50%" y1="0%" x2="100%" y2="100%"><stop offset="10%" stop-color="#74747a" stop-opacity="1"></stop><stop offset="90%" stop-color="#60626a" stop-opacity="1"></stop></linearGradient></defs><defs><linearGradient id="grad1_7" x1="50%" y1="0%" x2="100%" y2="100%"><stop offset="10%" stop-color="#74747a" stop-opacity="1"></stop><stop offset="90%" stop-color="#87878b" stop-opacity="1"></stop></linearGradient></defs><defs><linearGradient id="grad2_0" x1="0%" y1="0%" x2="50%" y2="100%"><stop offset="10%" stop-color="#001220" stop-opacity="1"></stop><stop offset="90%" stop-color="#001220" stop-opacity="1"></stop></linearGradient></defs><defs><linearGradient id="grad2_1" x1="0%" y1="0%" x2="50%" y2="100%"><stop offset="10%" stop-color="#16212e" stop-opacity="1"></stop><stop offset="90%" stop-color="#001220" stop-opacity="1"></stop></linearGradient></defs><defs><linearGradient id="grad2_2" x1="0%" y1="0%" x2="50%" y2="100%"><stop offset="10%" stop-color="#16212e" stop-opacity="1"></stop><stop offset="90%" stop-color="#28303c" stop-opacity="1"></stop></linearGradient></defs><defs><linearGradient id="grad2_3" x1="0%" y1="0%" x2="50%" y2="100%"><stop offset="10%" stop-color="#3b404b" stop-opacity="1"></stop><stop offset="90%" stop-color="#28303c" stop-opacity="1"></stop></linearGradient></defs><defs><linearGradient id="grad2_4" x1="0%" y1="0%" x2="50%" y2="100%"><stop offset="10%" stop-color="#3b404b" stop-opacity="1"></stop><stop offset="90%" stop-color="#4d515a" stop-opacity="1"></stop></linearGradient></defs><defs><linearGradient id="grad2_5" x1="0%" y1="0%" x2="50%" y2="100%"><stop offset="10%" stop-color="#60626a" stop-opacity="1"></stop><stop offset="90%" stop-color="#4d515a" stop-opacity="1"></stop></linearGradient></defs><defs><linearGradient id="grad2_6" x1="0%" y1="0%" x2="50%" y2="100%"><stop offset="10%" stop-color="#60626a" stop-opacity="1"></stop><stop offset="90%" stop-color="#74747a" stop-opacity="1"></stop></linearGradient></defs><defs><linearGradient id="grad2_7" x1="0%" y1="0%" x2="50%" y2="100%"><stop offset="10%" stop-color="#87878b" stop-opacity="1"></stop><stop offset="90%" stop-color="#74747a" stop-opacity="1"></stop></linearGradient></defs><g transform="translate(600, 0)"><path d="M0 255C-24.8 228.9 -49.6 202.8 -79.6 192.2C-109.6 181.5 -144.9 186.3 -173.2 173.2C-201.6 160.2 -223.1 129.4 -235.6 97.6C-248.1 65.7 -251.5 32.9 -255 0L0 0Z" fill="#7d7e83"></path><path d="M0 223.1C-21.7 200.3 -43.4 177.5 -69.6 168.1C-95.9 158.8 -126.8 163 -151.6 151.6C-176.4 140.2 -195.2 113.2 -206.1 85.4C-217.1 57.5 -220.1 28.8 -223.1 0L0 0Z" fill="#6a6b72"></path><path d="M0 191.3C-18.6 171.7 -37.2 152.1 -59.7 144.1C-82.2 136.1 -108.7 139.7 -129.9 129.9C-151.2 120.2 -167.3 97.1 -176.7 73.2C-186.1 49.3 -188.7 24.7 -191.2 0L0 0Z" fill="#575962"></path><path d="M0 159.4C-15.5 143.1 -31 126.8 -49.7 120.1C-68.5 113.4 -90.5 116.4 -108.3 108.3C-126 100.1 -139.4 80.9 -147.2 61C-155 41.1 -157.2 20.5 -159.4 0L0 0Z" fill="#444853"></path><path d="M0 127.5C-12.4 114.5 -24.8 101.4 -39.8 96.1C-54.8 90.8 -72.4 93.1 -86.6 86.6C-100.8 80.1 -111.6 64.7 -117.8 48.8C-124 32.9 -125.8 16.4 -127.5 0L0 0Z" fill="#313844"></path><path d="M0 95.6C-9.3 85.8 -18.6 76.1 -29.8 72.1C-41.1 68.1 -54.3 69.8 -65 65C-75.6 60.1 -83.7 48.5 -88.3 36.6C-93 24.7 -94.3 12.3 -95.6 0L0 0Z" fill="#1f2835"></path><path d="M0 63.8C-6.2 57.2 -12.4 50.7 -19.9 48C-27.4 45.4 -36.2 46.6 -43.3 43.3C-50.4 40.1 -55.8 32.4 -58.9 24.4C-62 16.4 -62.9 8.2 -63.7 0L0 0Z" fill="#0c1a27"></path><path d="M0 31.9C-3.1 28.6 -6.2 25.4 -9.9 24C-13.7 22.7 -18.1 23.3 -21.7 21.7C-25.2 20 -27.9 16.2 -29.4 12.2C-31 8.2 -31.4 4.1 -31.9 0L0 0Z" fill="#001220"></path></g><g transform="translate(0, 300)"><path d="M0 -255C27.9 -233.8 55.9 -212.6 81.9 -197.7C107.9 -182.8 132 -174.2 159.8 -159.8C187.6 -145.4 219.1 -125.2 235.6 -97.6C252.1 -70 253.5 -35 255 0L0 0Z" fill="#7d7e83"></path><path d="M0 -223.1C24.4 -204.6 48.9 -186 71.7 -173C94.4 -160 115.5 -152.4 139.8 -139.8C164.2 -127.2 191.7 -109.5 206.1 -85.4C220.6 -61.2 221.8 -30.6 223.1 0L0 0Z" fill="#6a6b72"></path><path d="M0 -191.2C21 -175.4 41.9 -159.5 61.4 -148.3C80.9 -137.1 99 -130.7 119.9 -119.9C140.7 -109 164.3 -93.9 176.7 -73.2C189.1 -52.5 190.2 -26.2 191.3 0L0 0Z" fill="#575962"></path><path d="M0 -159.4C17.5 -146.1 34.9 -132.9 51.2 -123.6C67.4 -114.3 82.5 -108.9 99.9 -99.9C117.3 -90.9 136.9 -78.2 147.2 -61C157.5 -43.7 158.5 -21.9 159.4 0L0 0Z" fill="#444853"></path><path d="M0 -127.5C14 -116.9 27.9 -106.3 40.9 -98.9C54 -91.4 66 -87.1 79.9 -79.9C93.8 -72.7 109.6 -62.6 117.8 -48.8C126 -35 126.8 -17.5 127.5 0L0 0Z" fill="#313844"></path><path d="M0 -95.6C10.5 -87.7 21 -79.7 30.7 -74.1C40.5 -68.6 49.5 -65.3 59.9 -59.9C70.4 -54.5 82.2 -46.9 88.3 -36.6C94.5 -26.2 95.1 -13.1 95.6 0L0 0Z" fill="#1f2835"></path><path d="M0 -63.7C7 -58.5 14 -53.2 20.5 -49.4C27 -45.7 33 -43.6 40 -40C46.9 -36.3 54.8 -31.3 58.9 -24.4C63 -17.5 63.4 -8.7 63.8 0L0 0Z" fill="#0c1a27"></path><path d="M0 -31.9C3.5 -29.2 7 -26.6 10.2 -24.7C13.5 -22.9 16.5 -21.8 20 -20C23.5 -18.2 27.4 -15.6 29.4 -12.2C31.5 -8.7 31.7 -4.4 31.9 0L0 0Z" fill="#001220"></path></g></svg>