<svg id="visual" viewBox="0 0 900 300" width="900" height="300" xmlns="http://www.w3.org/2000/svg" xmlns:xlink="http://www.w3.org/1999/xlink" version="1.1"><rect x="0" y="0" width="900" height="300" fill="#001220"></rect><defs><linearGradient id="grad1_0" x1="66.7%" y1="100%" x2="100%" y2="0%"><stop offset="-10%" stop-color="#fbae3c" stop-opacity="1"></stop><stop offset="110%" stop-color="#fbae3c" stop-opacity="1"></stop></linearGradient></defs><defs><linearGradient id="grad1_1" x1="66.7%" y1="100%" x2="100%" y2="0%"><stop offset="-10%" stop-color="#fbae3c" stop-opacity="1"></stop><stop offset="110%" stop-color="#f48350" stop-opacity="1"></stop></linearGradient></defs><defs><linearGradient id="grad1_2" x1="66.7%" y1="100%" x2="100%" y2="0%"><stop offset="-10%" stop-color="#d96162" stop-opacity="1"></stop><stop offset="110%" stop-color="#f48350" stop-opacity="1"></stop></linearGradient></defs><defs><linearGradient id="grad1_3" x1="66.7%" y1="100%" x2="100%" y2="0%"><stop offset="-10%" stop-color="#d96162" stop-opacity="1"></stop><stop offset="110%" stop-color="#af4b6d" stop-opacity="1"></stop></linearGradient></defs><defs><linearGradient id="grad1_4" x1="66.7%" y1="100%" x2="100%" y2="0%"><stop offset="-10%" stop-color="#7c3e6b" stop-opacity="1"></stop><stop offset="110%" stop-color="#af4b6d" stop-opacity="1"></stop></linearGradient></defs><defs><linearGradient id="grad1_5" x1="66.7%" y1="100%" x2="100%" y2="0%"><stop offset="-10%" stop-color="#7c3e6b" stop-opacity="1"></stop><stop offset="110%" stop-color="#49335c" stop-opacity="1"></stop></linearGradient></defs><defs><linearGradient id="grad1_6" x1="66.7%" y1="100%" x2="100%" y2="0%"><stop offset="-10%" stop-color="#1d2540" stop-opacity="1"></stop><stop offset="110%" stop-color="#49335c" stop-opacity="1"></stop></linearGradient></defs><defs><linearGradient id="grad1_7" x1="66.7%" y1="100%" x2="100%" y2="0%"><stop offset="-10%" stop-color="#1d2540" stop-opacity="1"></stop><stop offset="110%" stop-color="#001220" stop-opacity="1"></stop></linearGradient></defs><defs><linearGradient id="grad2_0" x1="0%" y1="100%" x2="33.3%" y2="0%"><stop offset="-10%" stop-color="#fbae3c" stop-opacity="1"></stop><stop offset="110%" stop-color="#fbae3c" stop-opacity="1"></stop></linearGradient></defs><defs><linearGradient id="grad2_1" x1="0%" y1="100%" x2="33.3%" y2="0%"><stop offset="-10%" stop-color="#f48350" stop-opacity="1"></stop><stop offset="110%" stop-color="#fbae3c" stop-opacity="1"></stop></linearGradient></defs><defs><linearGradient id="grad2_2" x1="0%" y1="100%" x2="33.3%" y2="0%"><stop offset="-10%" stop-color="#f48350" stop-opacity="1"></stop><stop offset="110%" stop-color="#d96162" stop-opacity="1"></stop></linearGradient></defs><defs><linearGradient id="grad2_3" x1="0%" y1="100%" x2="33.3%" y2="0%"><stop offset="-10%" stop-color="#af4b6d" stop-opacity="1"></stop><stop offset="110%" stop-color="#d96162" stop-opacity="1"></stop></linearGradient></defs><defs><linearGradient id="grad2_4" x1="0%" y1="100%" x2="33.3%" y2="0%"><stop offset="-10%" stop-color="#af4b6d" stop-opacity="1"></stop><stop offset="110%" stop-color="#7c3e6b" stop-opacity="1"></stop></linearGradient></defs><defs><linearGradient id="grad2_5" x1="0%" y1="100%" x2="33.3%" y2="0%"><stop offset="-10%" stop-color="#49335c" stop-opacity="1"></stop><stop offset="110%" stop-color="#7c3e6b" stop-opacity="1"></stop></linearGradient></defs><defs><linearGradient id="grad2_6" x1="0%" y1="100%" x2="33.3%" y2="0%"><stop offset="-10%" stop-color="#49335c" stop-opacity="1"></stop><stop offset="110%" stop-color="#1d2540" stop-opacity="1"></stop></linearGradient></defs><defs><linearGradient id="grad2_7" x1="0%" y1="100%" x2="33.3%" y2="0%"><stop offset="-10%" stop-color="#001220" stop-opacity="1"></stop><stop offset="110%" stop-color="#1d2540" stop-opacity="1"></stop></linearGradient></defs><g transform="translate(900, 300)"><path d="M-250 0C-250.6 -27.3 -251.2 -54.6 -242.5 -78.8C-233.8 -103 -215.8 -124.1 -197.4 -143.4C-179 -162.7 -160.1 -180.3 -138.1 -190.1C-116.1 -200 -90.9 -202.1 -67.4 -207.3C-43.8 -212.5 -21.9 -220.8 0 -229L0 0Z" fill="#0c1c30"></path><path d="M-218.7 0C-219.3 -23.9 -219.8 -47.8 -212.2 -68.9C-204.6 -90.1 -188.8 -108.6 -172.7 -125.5C-156.6 -142.4 -140.1 -157.7 -120.9 -166.4C-101.6 -175 -79.6 -176.9 -58.9 -181.4C-38.3 -186 -19.2 -193.2 0 -200.4L0 0Z" fill="#312c4f"></path><path d="M-187.5 0C-188 -20.5 -188.4 -40.9 -181.9 -59.1C-175.4 -77.2 -161.9 -93.1 -148.1 -107.6C-134.2 -122.1 -120.1 -135.2 -103.6 -142.6C-87.1 -150 -68.2 -151.6 -50.5 -155.5C-32.9 -159.4 -16.4 -165.6 0 -171.7L0 0Z" fill="#623965"></path><path d="M-156.2 0C-156.6 -17.1 -157 -34.1 -151.6 -49.2C-146.1 -64.4 -134.9 -77.6 -123.4 -89.6C-111.9 -101.7 -100.1 -112.7 -86.3 -118.8C-72.6 -125 -56.8 -126.3 -42.1 -129.6C-27.4 -132.8 -13.7 -138 0 -143.1L0 0Z" fill="#96446e"></path><path d="M-125 0C-125.3 -13.6 -125.6 -27.3 -121.3 -39.4C-116.9 -51.5 -107.9 -62.1 -98.7 -71.7C-89.5 -81.4 -80.1 -90.1 -69.1 -95.1C-58.1 -100 -45.5 -101.1 -33.7 -103.7C-21.9 -106.3 -11 -110.4 0 -114.5L0 0Z" fill="#c55469"></path><path d="M-93.7 0C-94 -10.2 -94.2 -20.5 -90.9 -29.5C-87.7 -38.6 -80.9 -46.5 -74 -53.8C-67.1 -61 -60.1 -67.6 -51.8 -71.3C-43.5 -75 -34.1 -75.8 -25.3 -77.7C-16.4 -79.7 -8.2 -82.8 0 -85.9L0 0Z" fill="#e9705a"></path><path d="M-62.5 0C-62.7 -6.8 -62.8 -13.6 -60.6 -19.7C-58.5 -25.7 -54 -31 -49.4 -35.9C-44.7 -40.7 -40 -45.1 -34.5 -47.5C-29 -50 -22.7 -50.5 -16.8 -51.8C-11 -53.1 -5.5 -55.2 0 -57.2L0 0Z" fill="#fa9845"></path><path d="M-31.2 0C-31.3 -3.4 -31.4 -6.8 -30.3 -9.8C-29.2 -12.9 -27 -15.5 -24.7 -17.9C-22.4 -20.3 -20 -22.5 -17.3 -23.8C-14.5 -25 -11.4 -25.3 -8.4 -25.9C-5.5 -26.6 -2.7 -27.6 0 -28.6L0 0Z" fill="#fbae3c"></path></g><g transform="translate(0, 0)"><path d="M232 0C238.3 27.8 244.7 55.6 234.9 76.3C225.2 97 199.3 110.6 184.5 134C169.6 157.5 165.7 190.8 146.9 202.3C128.2 213.7 94.6 203.1 67.7 208.3C40.7 213.4 20.4 234.2 0 255L0 0Z" fill="#0c1c30"></path><path d="M203 0C208.5 24.3 214.1 48.7 205.5 66.8C197 84.9 174.4 96.7 161.4 117.3C148.4 137.8 145 167 128.6 177C112.2 187 82.8 177.8 59.2 182.2C35.6 186.7 17.8 204.9 0 223.1L0 0Z" fill="#312c4f"></path><path d="M174 0C178.7 20.9 183.5 41.7 176.2 57.2C168.9 72.8 149.5 82.9 138.3 100.5C127.2 118.1 124.3 143.1 110.2 151.7C96.2 160.3 71 152.4 50.8 156.2C30.5 160.1 15.3 175.7 0 191.3L0 0Z" fill="#623965"></path><path d="M145 0C149 17.4 152.9 34.8 146.8 47.7C140.7 60.6 124.6 69.1 115.3 83.8C106 98.4 103.6 119.3 91.8 126.4C80.1 133.5 59.1 127 42.3 130.2C25.4 133.4 12.7 146.4 0 159.4L0 0Z" fill="#96446e"></path><path d="M116 0C119.2 13.9 122.3 27.8 117.5 38.2C112.6 48.5 99.7 55.3 92.2 67C84.8 78.7 82.8 95.4 73.5 101.1C64.1 106.8 47.3 101.6 33.8 104.1C20.4 106.7 10.2 117.1 0 127.5L0 0Z" fill="#c55469"></path><path d="M87 0C89.4 10.4 91.7 20.9 88.1 28.6C84.4 36.4 74.7 41.5 69.2 50.3C63.6 59.1 62.1 71.6 55.1 75.8C48.1 80.1 35.5 76.2 25.4 78.1C15.3 80 7.6 87.8 0 95.6L0 0Z" fill="#e9705a"></path><path d="M58 0C59.6 7 61.2 13.9 58.7 19.1C56.3 24.3 49.8 27.6 46.1 33.5C42.4 39.4 41.4 47.7 36.7 50.6C32.1 53.4 23.7 50.8 16.9 52.1C10.2 53.4 5.1 58.6 0 63.8L0 0Z" fill="#fa9845"></path><path d="M29 0C29.8 3.5 30.6 7 29.4 9.5C28.1 12.1 24.9 13.8 23.1 16.8C21.2 19.7 20.7 23.9 18.4 25.3C16 26.7 11.8 25.4 8.5 26C5.1 26.7 2.5 29.3 0 31.9L0 0Z" fill="#fbae3c"></path></g></svg>