<svg id="visual" viewBox="0 0 900 600" width="900" height="600" xmlns="http://www.w3.org/2000/svg" xmlns:xlink="http://www.w3.org/1999/xlink" version="1.1"><rect x="0" y="0" width="900" height="600" fill="#2e3744"></rect><defs><linearGradient id="grad1_0" x1="33.3%" y1="0%" x2="100%" y2="100%"><stop offset="20%" stop-color="#00101e" stop-opacity="1"></stop><stop offset="80%" stop-color="#00101e" stop-opacity="1"></stop></linearGradient></defs><defs><linearGradient id="grad1_1" x1="33.3%" y1="0%" x2="100%" y2="100%"><stop offset="20%" stop-color="#00101e" stop-opacity="1"></stop><stop offset="80%" stop-color="#091623" stop-opacity="1"></stop></linearGradient></defs><defs><linearGradient id="grad1_2" x1="33.3%" y1="0%" x2="100%" y2="100%"><stop offset="20%" stop-color="#0f1b28" stop-opacity="1"></stop><stop offset="80%" stop-color="#091623" stop-opacity="1"></stop></linearGradient></defs><defs><linearGradient id="grad1_3" x1="33.3%" y1="0%" x2="100%" y2="100%"><stop offset="20%" stop-color="#0f1b28" stop-opacity="1"></stop><stop offset="80%" stop-color="#15212e" stop-opacity="1"></stop></linearGradient></defs><defs><linearGradient id="grad1_4" x1="33.3%" y1="0%" x2="100%" y2="100%"><stop offset="20%" stop-color="#1c2633" stop-opacity="1"></stop><stop offset="80%" stop-color="#15212e" stop-opacity="1"></stop></linearGradient></defs><defs><linearGradient id="grad1_5" x1="33.3%" y1="0%" x2="100%" y2="100%"><stop offset="20%" stop-color="#1c2633" stop-opacity="1"></stop><stop offset="80%" stop-color="#222c39" stop-opacity="1"></stop></linearGradient></defs><defs><linearGradient id="grad1_6" x1="33.3%" y1="0%" x2="100%" y2="100%"><stop offset="20%" stop-color="#28313e" stop-opacity="1"></stop><stop offset="80%" stop-color="#222c39" stop-opacity="1"></stop></linearGradient></defs><defs><linearGradient id="grad1_7" x1="33.3%" y1="0%" x2="100%" y2="100%"><stop offset="20%" stop-color="#28313e" stop-opacity="1"></stop><stop offset="80%" stop-color="#2e3744" stop-opacity="1"></stop></linearGradient></defs><defs><linearGradient id="grad2_0" x1="0%" y1="0%" x2="66.7%" y2="100%"><stop offset="20%" stop-color="#00101e" stop-opacity="1"></stop><stop offset="80%" stop-color="#00101e" stop-opacity="1"></stop></linearGradient></defs><defs><linearGradient id="grad2_1" x1="0%" y1="0%" x2="66.7%" y2="100%"><stop offset="20%" stop-color="#091623" stop-opacity="1"></stop><stop offset="80%" stop-color="#00101e" stop-opacity="1"></stop></linearGradient></defs><defs><linearGradient id="grad2_2" x1="0%" y1="0%" x2="66.7%" y2="100%"><stop offset="20%" stop-color="#091623" stop-opacity="1"></stop><stop offset="80%" stop-color="#0f1b28" stop-opacity="1"></stop></linearGradient></defs><defs><linearGradient id="grad2_3" x1="0%" y1="0%" x2="66.7%" y2="100%"><stop offset="20%" stop-color="#15212e" stop-opacity="1"></stop><stop offset="80%" stop-color="#0f1b28" stop-opacity="1"></stop></linearGradient></defs><defs><linearGradient id="grad2_4" x1="0%" y1="0%" x2="66.7%" y2="100%"><stop offset="20%" stop-color="#15212e" stop-opacity="1"></stop><stop offset="80%" stop-color="#1c2633" stop-opacity="1"></stop></linearGradient></defs><defs><linearGradient id="grad2_5" x1="0%" y1="0%" x2="66.7%" y2="100%"><stop offset="20%" stop-color="#222c39" stop-opacity="1"></stop><stop offset="80%" stop-color="#1c2633" stop-opacity="1"></stop></linearGradient></defs><defs><linearGradient id="grad2_6" x1="0%" y1="0%" x2="66.7%" y2="100%"><stop offset="20%" stop-color="#222c39" stop-opacity="1"></stop><stop offset="80%" stop-color="#28313e" stop-opacity="1"></stop></linearGradient></defs><defs><linearGradient id="grad2_7" x1="0%" y1="0%" x2="66.7%" y2="100%"><stop offset="20%" stop-color="#2e3744" stop-opacity="1"></stop><stop offset="80%" stop-color="#28313e" stop-opacity="1"></stop></linearGradient></defs><g transform="translate(900, 0)"><path d="M0 432.7C-45.3 401.9 -90.6 371.1 -147.3 355.7C-204 340.2 -272.1 340.1 -305.9 305.9C-339.8 271.8 -339.4 203.6 -354.8 147C-370.2 90.3 -401.4 45.1 -432.7 0L0 0Z" fill="#2b3441"></path><path d="M0 378.6C-39.7 351.7 -79.3 324.8 -128.9 311.2C-178.5 297.7 -238.1 297.6 -267.7 267.7C-297.3 237.8 -296.9 178.2 -310.4 128.6C-323.9 79 -351.2 39.5 -378.6 0L0 0Z" fill="#252e3b"></path><path d="M0 324.5C-34 301.4 -68 278.4 -110.5 266.8C-153 255.2 -204.1 255.1 -229.5 229.5C-254.8 203.8 -254.5 152.7 -266.1 110.2C-277.6 67.7 -301.1 33.9 -324.5 0L0 0Z" fill="#1f2936"></path><path d="M0 270.4C-28.3 251.2 -56.6 232 -92.1 222.3C-127.5 212.7 -170.1 212.6 -191.2 191.2C-212.4 169.9 -212.1 127.3 -221.7 91.8C-231.4 56.4 -250.9 28.2 -270.4 0L0 0Z" fill="#182330"></path><path d="M0 216.3C-22.7 201 -45.3 185.6 -73.7 177.8C-102 170.1 -136.1 170 -153 153C-169.9 135.9 -169.7 101.8 -177.4 73.5C-185.1 45.1 -200.7 22.6 -216.3 0L0 0Z" fill="#121e2b"></path><path d="M0 162.2C-17 150.7 -34 139.2 -55.2 133.4C-76.5 127.6 -102 127.5 -114.7 114.7C-127.4 101.9 -127.3 76.4 -133 55.1C-138.8 33.9 -150.5 16.9 -162.2 0L0 0Z" fill="#0c1926"></path><path d="M0 108.2C-11.3 100.5 -22.7 92.8 -36.8 88.9C-51 85.1 -68 85 -76.5 76.5C-84.9 67.9 -84.8 50.9 -88.7 36.7C-92.5 22.6 -100.4 11.3 -108.2 0L0 0Z" fill="#041320"></path><path d="M0 54.1C-5.7 50.2 -11.3 46.4 -18.4 44.5C-25.5 42.5 -34 42.5 -38.2 38.2C-42.5 34 -42.4 25.5 -44.3 18.4C-46.3 11.3 -50.2 5.6 -54.1 0L0 0Z" fill="#00101e"></path></g><g transform="translate(0, 600)"><path d="M0 -432.7C59.3 -425.4 118.6 -418.1 161.1 -389C203.6 -359.8 229.2 -308.6 270.8 -270.8C312.4 -233 370.1 -208.5 399.7 -165.6C429.4 -122.7 431 -61.3 432.7 0L0 0Z" fill="#2b3441"></path><path d="M0 -378.6C51.9 -372.2 103.8 -365.9 141 -340.3C178.1 -314.8 200.5 -270.1 237 -237C273.4 -203.9 323.8 -182.4 349.8 -144.9C375.7 -107.3 377.1 -53.7 378.6 0L0 0Z" fill="#252e3b"></path><path d="M0 -324.5C44.5 -319.1 89 -313.6 120.8 -291.7C152.7 -269.8 171.9 -231.5 203.1 -203.1C234.3 -174.8 277.6 -156.4 299.8 -124.2C322 -92 323.3 -46 324.5 0L0 0Z" fill="#1f2936"></path><path d="M0 -270.4C37.1 -265.9 74.2 -261.3 100.7 -243.1C127.2 -224.9 143.2 -192.9 169.3 -169.3C195.3 -145.6 231.3 -130.3 249.8 -103.5C268.4 -76.7 269.4 -38.3 270.4 0L0 0Z" fill="#182330"></path><path d="M0 -216.3C29.7 -212.7 59.3 -209.1 80.6 -194.5C101.8 -179.9 114.6 -154.3 135.4 -135.4C156.2 -116.5 185 -104.2 199.9 -82.8C214.7 -61.3 215.5 -30.7 216.3 0L0 0Z" fill="#121e2b"></path><path d="M0 -162.2C22.2 -159.5 44.5 -156.8 60.4 -145.9C76.3 -134.9 85.9 -115.7 101.6 -101.6C117.2 -87.4 138.8 -78.2 149.9 -62.1C161 -46 161.6 -23 162.2 0L0 0Z" fill="#0c1926"></path><path d="M0 -108.2C14.8 -106.4 29.7 -104.5 40.3 -97.2C50.9 -89.9 57.3 -77.2 67.7 -67.7C78.1 -58.3 92.5 -52.1 99.9 -41.4C107.3 -30.7 107.8 -15.3 108.2 0L0 0Z" fill="#041320"></path><path d="M0 -54.1C7.4 -53.2 14.8 -52.3 20.1 -48.6C25.4 -45 28.6 -38.6 33.9 -33.9C39.1 -29.1 46.3 -26.1 50 -20.7C53.7 -15.3 53.9 -7.7 54.1 0L0 0Z" fill="#00101e"></path></g></svg>