<svg id="visual" viewBox="0 0 540 960" width="540" height="960" xmlns="http://www.w3.org/2000/svg" xmlns:xlink="http://www.w3.org/1999/xlink" version="1.1"><rect x="0" y="0" width="540" height="960" fill="#001220"></rect><defs><linearGradient id="grad1_0" x1="0%" y1="0%" x2="100%" y2="100%"><stop offset="30%" stop-color="#fbae3c" stop-opacity="1"></stop><stop offset="70%" stop-color="#fbae3c" stop-opacity="1"></stop></linearGradient></defs><defs><linearGradient id="grad1_1" x1="0%" y1="0%" x2="100%" y2="100%"><stop offset="30%" stop-color="#fbae3c" stop-opacity="1"></stop><stop offset="70%" stop-color="#f48350" stop-opacity="1"></stop></linearGradient></defs><defs><linearGradient id="grad1_2" x1="0%" y1="0%" x2="100%" y2="100%"><stop offset="30%" stop-color="#d96162" stop-opacity="1"></stop><stop offset="70%" stop-color="#f48350" stop-opacity="1"></stop></linearGradient></defs><defs><linearGradient id="grad1_3" x1="0%" y1="0%" x2="100%" y2="100%"><stop offset="30%" stop-color="#d96162" stop-opacity="1"></stop><stop offset="70%" stop-color="#af4b6d" stop-opacity="1"></stop></linearGradient></defs><defs><linearGradient id="grad1_4" x1="0%" y1="0%" x2="100%" y2="100%"><stop offset="30%" stop-color="#7c3e6b" stop-opacity="1"></stop><stop offset="70%" stop-color="#af4b6d" stop-opacity="1"></stop></linearGradient></defs><defs><linearGradient id="grad1_5" x1="0%" y1="0%" x2="100%" y2="100%"><stop offset="30%" stop-color="#7c3e6b" stop-opacity="1"></stop><stop offset="70%" stop-color="#49335c" stop-opacity="1"></stop></linearGradient></defs><defs><linearGradient id="grad1_6" x1="0%" y1="0%" x2="100%" y2="100%"><stop offset="30%" stop-color="#1d2540" stop-opacity="1"></stop><stop offset="70%" stop-color="#49335c" stop-opacity="1"></stop></linearGradient></defs><defs><linearGradient id="grad1_7" x1="0%" y1="0%" x2="100%" y2="100%"><stop offset="30%" stop-color="#1d2540" stop-opacity="1"></stop><stop offset="70%" stop-color="#001220" stop-opacity="1"></stop></linearGradient></defs><defs><linearGradient id="grad2_0" x1="0%" y1="0%" x2="100%" y2="100%"><stop offset="30%" stop-color="#fbae3c" stop-opacity="1"></stop><stop offset="70%" stop-color="#fbae3c" stop-opacity="1"></stop></linearGradient></defs><defs><linearGradient id="grad2_1" x1="0%" y1="0%" x2="100%" y2="100%"><stop offset="30%" stop-color="#f48350" stop-opacity="1"></stop><stop offset="70%" stop-color="#fbae3c" stop-opacity="1"></stop></linearGradient></defs><defs><linearGradient id="grad2_2" x1="0%" y1="0%" x2="100%" y2="100%"><stop offset="30%" stop-color="#f48350" stop-opacity="1"></stop><stop offset="70%" stop-color="#d96162" stop-opacity="1"></stop></linearGradient></defs><defs><linearGradient id="grad2_3" x1="0%" y1="0%" x2="100%" y2="100%"><stop offset="30%" stop-color="#af4b6d" stop-opacity="1"></stop><stop offset="70%" stop-color="#d96162" stop-opacity="1"></stop></linearGradient></defs><defs><linearGradient id="grad2_4" x1="0%" y1="0%" x2="100%" y2="100%"><stop offset="30%" stop-color="#af4b6d" stop-opacity="1"></stop><stop offset="70%" stop-color="#7c3e6b" stop-opacity="1"></stop></linearGradient></defs><defs><linearGradient id="grad2_5" x1="0%" y1="0%" x2="100%" y2="100%"><stop offset="30%" stop-color="#49335c" stop-opacity="1"></stop><stop offset="70%" stop-color="#7c3e6b" stop-opacity="1"></stop></linearGradient></defs><defs><linearGradient id="grad2_6" x1="0%" y1="0%" x2="100%" y2="100%"><stop offset="30%" stop-color="#49335c" stop-opacity="1"></stop><stop offset="70%" stop-color="#1d2540" stop-opacity="1"></stop></linearGradient></defs><defs><linearGradient id="grad2_7" x1="0%" y1="0%" x2="100%" y2="100%"><stop offset="30%" stop-color="#001220" stop-opacity="1"></stop><stop offset="70%" stop-color="#1d2540" stop-opacity="1"></stop></linearGradient></defs><g transform="translate(540, 0)"><path d="M0 500C-41.6 471.1 -83.1 442.1 -143.1 440.3C-203 438.6 -281.4 463.9 -315.6 434.4C-349.9 405 -340.2 320.6 -373 271C-405.8 221.3 -481.1 206.3 -513.6 166.9C-546 127.5 -535.5 63.7 -525 0L0 0Z" fill="#0c1c30"></path><path d="M0 437.5C-36.4 412.2 -72.7 386.9 -125.2 385.3C-177.6 383.7 -246.2 405.9 -276.2 380.1C-306.2 354.3 -297.6 280.6 -326.3 237.1C-355 193.6 -421 180.5 -449.4 146C-477.8 111.5 -468.6 55.8 -459.4 0L0 0Z" fill="#312c4f"></path><path d="M0 375C-31.2 353.3 -62.3 331.6 -107.3 330.3C-152.3 328.9 -211 347.9 -236.7 325.8C-262.4 303.7 -255.1 240.5 -279.7 203.2C-304.3 166 -360.9 154.7 -385.2 125.2C-409.5 95.6 -401.6 47.8 -393.7 0L0 0Z" fill="#623965"></path><path d="M0 312.5C-26 294.4 -52 276.3 -89.4 275.2C-126.9 274.1 -175.8 289.9 -197.3 271.5C-218.7 253.1 -212.6 200.4 -233.1 169.4C-253.6 138.3 -300.7 128.9 -321 104.3C-341.3 79.7 -334.7 39.8 -328.1 0L0 0Z" fill="#96446e"></path><path d="M0 250C-20.8 235.5 -41.6 221.1 -71.5 220.2C-101.5 219.3 -140.7 232 -157.8 217.2C-175 202.5 -170.1 160.3 -186.5 135.5C-202.9 110.6 -240.6 103.1 -256.8 83.4C-273 63.7 -267.8 31.9 -262.5 0L0 0Z" fill="#c55469"></path><path d="M0 187.5C-15.6 176.6 -31.2 165.8 -53.7 165.1C-76.1 164.5 -105.5 174 -118.4 162.9C-131.2 151.9 -127.6 120.2 -139.9 101.6C-152.2 83 -180.4 77.3 -192.6 62.6C-204.8 47.8 -200.8 23.9 -196.9 0L0 0Z" fill="#e9705a"></path><path d="M0 125C-10.4 117.8 -20.8 110.5 -35.8 110.1C-50.8 109.6 -70.3 116 -78.9 108.6C-87.5 101.2 -85 80.2 -93.2 67.7C-101.4 55.3 -120.3 51.6 -128.4 41.7C-136.5 31.9 -133.9 15.9 -131.2 0L0 0Z" fill="#fa9845"></path><path d="M0 62.5C-5.2 58.9 -10.4 55.3 -17.9 55C-25.4 54.8 -35.2 58 -39.5 54.3C-43.7 50.6 -42.5 40.1 -46.6 33.9C-50.7 27.7 -60.1 25.8 -64.2 20.9C-68.3 15.9 -66.9 8 -65.6 0L0 0Z" fill="#fbae3c"></path></g><g transform="translate(0, 960)"><path d="M0 -502C55.9 -513.2 111.8 -524.3 166.9 -513.6C221.9 -502.8 276.2 -470.1 309.8 -426.4C343.3 -382.6 356.2 -327.9 391.6 -284.5C427 -241.1 484.9 -209 503.1 -163.5C521.3 -117.9 499.6 -59 478 0L0 0Z" fill="#0c1c30"></path><path d="M0 -439.2C48.9 -449 97.8 -458.8 146 -449.4C194.2 -439.9 241.7 -411.3 271 -373.1C300.4 -334.8 311.6 -286.9 342.6 -248.9C373.6 -210.9 424.3 -182.9 440.2 -143C456.1 -103.2 437.2 -51.6 418.3 0L0 0Z" fill="#312c4f"></path><path d="M0 -376.5C41.9 -384.9 83.8 -393.3 125.2 -385.2C166.5 -377.1 207.2 -352.6 232.3 -319.8C257.5 -287 267.1 -245.9 293.7 -213.4C320.2 -180.8 363.7 -156.7 377.3 -122.6C391 -88.5 374.7 -44.2 358.5 0L0 0Z" fill="#623965"></path><path d="M0 -313.7C34.9 -320.7 69.9 -327.7 104.3 -321C138.7 -314.2 172.6 -293.8 193.6 -266.5C214.6 -239.1 222.6 -204.9 244.7 -177.8C266.9 -150.7 303.1 -130.6 314.4 -102.2C325.8 -73.7 312.3 -36.9 298.8 0L0 0Z" fill="#96446e"></path><path d="M0 -251C27.9 -256.6 55.9 -262.2 83.4 -256.8C111 -251.4 138.1 -235 154.9 -213.2C171.7 -191.3 178.1 -163.9 195.8 -142.2C213.5 -120.5 242.5 -104.5 251.6 -81.7C260.6 -59 249.8 -29.5 239 0L0 0Z" fill="#c55469"></path><path d="M0 -188.2C21 -192.4 41.9 -196.6 62.6 -192.6C83.2 -188.5 103.6 -176.3 116.2 -159.9C128.7 -143.5 133.6 -123 146.8 -106.7C160.1 -90.4 181.9 -78.4 188.7 -61.3C195.5 -44.2 187.4 -22.1 179.3 0L0 0Z" fill="#e9705a"></path><path d="M0 -125.5C14 -128.3 27.9 -131.1 41.7 -128.4C55.5 -125.7 69.1 -117.5 77.4 -106.6C85.8 -95.7 89 -82 97.9 -71.1C106.7 -60.3 121.2 -52.2 125.8 -40.9C130.3 -29.5 124.9 -14.7 119.5 0L0 0Z" fill="#fa9845"></path><path d="M0 -62.7C7 -64.1 14 -65.5 20.9 -64.2C27.7 -62.8 34.5 -58.8 38.7 -53.3C42.9 -47.8 44.5 -41 48.9 -35.6C53.4 -30.1 60.6 -26.1 62.9 -20.4C65.2 -14.7 62.5 -7.4 59.8 0L0 0Z" fill="#fbae3c"></path></g></svg>