<svg id="visual" viewBox="0 0 900 450" width="900" height="450" xmlns="http://www.w3.org/2000/svg" xmlns:xlink="http://www.w3.org/1999/xlink" version="1.1"><rect x="0" y="0" width="900" height="450" fill="#87878b"></rect><defs><linearGradient id="grad1_0" x1="50%" y1="100%" x2="100%" y2="0%"><stop offset="10%" stop-color="#001122" stop-opacity="1"></stop><stop offset="90%" stop-color="#001122" stop-opacity="1"></stop></linearGradient></defs><defs><linearGradient id="grad1_1" x1="50%" y1="100%" x2="100%" y2="0%"><stop offset="10%" stop-color="#001122" stop-opacity="1"></stop><stop offset="90%" stop-color="#152030" stop-opacity="1"></stop></linearGradient></defs><defs><linearGradient id="grad1_2" x1="50%" y1="100%" x2="100%" y2="0%"><stop offset="10%" stop-color="#282f3e" stop-opacity="1"></stop><stop offset="90%" stop-color="#152030" stop-opacity="1"></stop></linearGradient></defs><defs><linearGradient id="grad1_3" x1="50%" y1="100%" x2="100%" y2="0%"><stop offset="10%" stop-color="#282f3e" stop-opacity="1"></stop><stop offset="90%" stop-color="#3b3f4c" stop-opacity="1"></stop></linearGradient></defs><defs><linearGradient id="grad1_4" x1="50%" y1="100%" x2="100%" y2="0%"><stop offset="10%" stop-color="#4d505b" stop-opacity="1"></stop><stop offset="90%" stop-color="#3b3f4c" stop-opacity="1"></stop></linearGradient></defs><defs><linearGradient id="grad1_5" x1="50%" y1="100%" x2="100%" y2="0%"><stop offset="10%" stop-color="#4d505b" stop-opacity="1"></stop><stop offset="90%" stop-color="#60626b" stop-opacity="1"></stop></linearGradient></defs><defs><linearGradient id="grad1_6" x1="50%" y1="100%" x2="100%" y2="0%"><stop offset="10%" stop-color="#74747b" stop-opacity="1"></stop><stop offset="90%" stop-color="#60626b" stop-opacity="1"></stop></linearGradient></defs><defs><linearGradient id="grad1_7" x1="50%" y1="100%" x2="100%" y2="0%"><stop offset="10%" stop-color="#74747b" stop-opacity="1"></stop><stop offset="90%" stop-color="#87878b" stop-opacity="1"></stop></linearGradient></defs><defs><linearGradient id="grad2_0" x1="0%" y1="100%" x2="50%" y2="0%"><stop offset="10%" stop-color="#001122" stop-opacity="1"></stop><stop offset="90%" stop-color="#001122" stop-opacity="1"></stop></linearGradient></defs><defs><linearGradient id="grad2_1" x1="0%" y1="100%" x2="50%" y2="0%"><stop offset="10%" stop-color="#152030" stop-opacity="1"></stop><stop offset="90%" stop-color="#001122" stop-opacity="1"></stop></linearGradient></defs><defs><linearGradient id="grad2_2" x1="0%" y1="100%" x2="50%" y2="0%"><stop offset="10%" stop-color="#152030" stop-opacity="1"></stop><stop offset="90%" stop-color="#282f3e" stop-opacity="1"></stop></linearGradient></defs><defs><linearGradient id="grad2_3" x1="0%" y1="100%" x2="50%" y2="0%"><stop offset="10%" stop-color="#3b3f4c" stop-opacity="1"></stop><stop offset="90%" stop-color="#282f3e" stop-opacity="1"></stop></linearGradient></defs><defs><linearGradient id="grad2_4" x1="0%" y1="100%" x2="50%" y2="0%"><stop offset="10%" stop-color="#3b3f4c" stop-opacity="1"></stop><stop offset="90%" stop-color="#4d505b" stop-opacity="1"></stop></linearGradient></defs><defs><linearGradient id="grad2_5" x1="0%" y1="100%" x2="50%" y2="0%"><stop offset="10%" stop-color="#60626b" stop-opacity="1"></stop><stop offset="90%" stop-color="#4d505b" stop-opacity="1"></stop></linearGradient></defs><defs><linearGradient id="grad2_6" x1="0%" y1="100%" x2="50%" y2="0%"><stop offset="10%" stop-color="#60626b" stop-opacity="1"></stop><stop offset="90%" stop-color="#74747b" stop-opacity="1"></stop></linearGradient></defs><defs><linearGradient id="grad2_7" x1="0%" y1="100%" x2="50%" y2="0%"><stop offset="10%" stop-color="#87878b" stop-opacity="1"></stop><stop offset="90%" stop-color="#74747b" stop-opacity="1"></stop></linearGradient></defs><g transform="translate(900, 450)"><path d="M-373 0C-384.1 -36.2 -395.2 -72.5 -385.4 -103.3C-375.7 -134 -345.1 -159.4 -326.5 -188.5C-307.9 -217.6 -301.3 -250.6 -286.4 -286.4C-271.4 -322.1 -248.1 -360.7 -213.8 -370.2C-179.4 -379.7 -134 -360.2 -96.5 -360.3C-59.1 -360.4 -29.5 -380.2 0 -400L0 0Z" fill="#7d7d83"></path><path d="M-326.4 0C-336.1 -31.7 -345.8 -63.4 -337.2 -90.4C-328.7 -117.3 -301.9 -139.4 -285.7 -164.9C-269.4 -190.4 -263.7 -219.3 -250.6 -250.6C-237.5 -281.9 -217.1 -315.6 -187 -323.9C-157 -332.3 -117.3 -315.2 -84.5 -315.3C-51.7 -315.4 -25.8 -332.7 0 -350L0 0Z" fill="#6a6b73"></path><path d="M-279.7 0C-288.1 -27.2 -296.4 -54.4 -289.1 -77.5C-281.7 -100.5 -258.8 -119.5 -244.9 -141.4C-230.9 -163.2 -226 -188 -214.8 -214.8C-203.6 -241.6 -186.1 -270.5 -160.3 -277.7C-134.5 -284.8 -100.5 -270.1 -72.4 -270.2C-44.3 -270.3 -22.2 -285.2 0 -300L0 0Z" fill="#575963"></path><path d="M-233.1 0C-240 -22.7 -247 -45.3 -240.9 -64.5C-234.8 -83.8 -215.7 -99.6 -204.1 -117.8C-192.4 -136 -188.3 -156.6 -179 -179C-169.6 -201.3 -155.1 -225.4 -133.6 -231.4C-112.1 -237.3 -83.8 -225.1 -60.3 -225.2C-36.9 -225.3 -18.5 -237.6 0 -250L0 0Z" fill="#444854"></path><path d="M-186.5 0C-192 -18.1 -197.6 -36.2 -192.7 -51.6C-187.8 -67 -172.5 -79.7 -163.2 -94.3C-154 -108.8 -150.7 -125.3 -143.2 -143.2C-135.7 -161.1 -124.1 -180.4 -106.9 -185.1C-89.7 -189.9 -67 -180.1 -48.3 -180.1C-29.5 -180.2 -14.8 -190.1 0 -200L0 0Z" fill="#313745"></path><path d="M-139.9 0C-144 -13.6 -148.2 -27.2 -144.5 -38.7C-140.9 -50.3 -129.4 -59.8 -122.4 -70.7C-115.5 -81.6 -113 -94 -107.4 -107.4C-101.8 -120.8 -93 -135.3 -80.2 -138.8C-67.3 -142.4 -50.3 -135.1 -36.2 -135.1C-22.2 -135.2 -11.1 -142.6 0 -150L0 0Z" fill="#1f2837"></path><path d="M-93.2 0C-96 -9.1 -98.8 -18.1 -96.4 -25.8C-93.9 -33.5 -86.3 -39.8 -81.6 -47.1C-77 -54.4 -75.3 -62.7 -71.6 -71.6C-67.9 -80.5 -62 -90.2 -53.4 -92.6C-44.8 -94.9 -33.5 -90 -24.1 -90.1C-14.8 -90.1 -7.4 -95.1 0 -100L0 0Z" fill="#0c1929"></path><path d="M-46.6 0C-48 -4.5 -49.4 -9.1 -48.2 -12.9C-47 -16.8 -43.1 -19.9 -40.8 -23.6C-38.5 -27.2 -37.7 -31.3 -35.8 -35.8C-33.9 -40.3 -31 -45.1 -26.7 -46.3C-22.4 -47.5 -16.8 -45 -12.1 -45C-7.4 -45.1 -3.7 -47.5 0 -50L0 0Z" fill="#001122"></path></g><g transform="translate(0, 0)"><path d="M427.5 0C429.1 39.9 430.7 79.9 409.6 109.7C388.4 139.6 344.5 159.4 317 183C289.4 206.6 278.3 234.1 261.6 261.6C244.9 289.1 222.6 316.6 195.5 338.6C168.4 360.7 136.4 377.3 103 384.4C69.6 391.6 34.8 389.3 0 387L0 0Z" fill="#7d7d83"></path><path d="M374.1 0C375.5 34.9 376.9 69.9 358.4 96C339.8 122.1 301.4 139.4 277.3 160.1C253.3 180.8 243.5 204.9 228.9 228.9C214.3 253 194.8 277 171.1 296.3C147.3 315.6 119.3 330.1 90.1 336.4C60.9 342.6 30.5 340.6 0 338.6L0 0Z" fill="#6a6b73"></path><path d="M320.6 0C321.8 30 323 59.9 307.2 82.3C291.3 104.7 258.4 119.5 237.7 137.2C217.1 155 208.8 175.6 196.2 196.2C183.7 216.8 167 237.4 146.6 254C126.3 270.5 102.3 283 77.3 288.3C52.2 293.7 26.1 292 0 290.3L0 0Z" fill="#575963"></path><path d="M267.2 0C268.2 25 269.2 49.9 256 68.6C242.7 87.2 215.3 99.6 198.1 114.4C180.9 129.1 174 146.3 163.5 163.5C153.1 180.7 139.1 197.9 122.2 211.6C105.2 225.4 85.2 235.8 64.4 240.3C43.5 244.7 21.8 243.3 0 241.9L0 0Z" fill="#444854"></path><path d="M213.8 0C214.6 20 215.4 39.9 204.8 54.9C194.2 69.8 172.2 79.7 158.5 91.5C144.7 103.3 139.2 117.1 130.8 130.8C122.5 144.6 111.3 158.3 97.8 169.3C84.2 180.3 68.2 188.6 51.5 192.2C34.8 195.8 17.4 194.6 0 193.5L0 0Z" fill="#313745"></path><path d="M160.3 0C160.9 15 161.5 30 153.6 41.2C145.6 52.3 129.2 59.8 118.9 68.6C108.5 77.5 104.4 87.8 98.1 98.1C91.8 108.4 83.5 118.7 73.3 127C63.1 135.2 51.1 141.5 38.6 144.2C26.1 146.8 13.1 146 0 145.1L0 0Z" fill="#1f2837"></path><path d="M106.9 0C107.3 10 107.7 20 102.4 27.4C97.1 34.9 86.1 39.8 79.2 45.7C72.4 51.7 69.6 58.5 65.4 65.4C61.2 72.3 55.7 79.1 48.9 84.7C42.1 90.2 34.1 94.3 25.8 96.1C17.4 97.9 8.7 97.3 0 96.8L0 0Z" fill="#0c1929"></path><path d="M53.4 0C53.6 5 53.8 10 51.2 13.7C48.5 17.4 43.1 19.9 39.6 22.9C36.2 25.8 34.8 29.3 32.7 32.7C30.6 36.1 27.8 39.6 24.4 42.3C21 45.1 17 47.2 12.9 48.1C8.7 48.9 4.4 48.7 0 48.4L0 0Z" fill="#001122"></path></g></svg>