<svg id="visual" viewBox="0 0 900 450" width="900" height="450" xmlns="http://www.w3.org/2000/svg" xmlns:xlink="http://www.w3.org/1999/xlink" version="1.1"><rect x="0" y="0" width="900" height="450" fill="#87878b"></rect><defs><linearGradient id="grad1_0" x1="50%" y1="100%" x2="100%" y2="0%"><stop offset="10%" stop-color="#001122" stop-opacity="1"></stop><stop offset="90%" stop-color="#001122" stop-opacity="1"></stop></linearGradient></defs><defs><linearGradient id="grad1_1" x1="50%" y1="100%" x2="100%" y2="0%"><stop offset="10%" stop-color="#001122" stop-opacity="1"></stop><stop offset="90%" stop-color="#152030" stop-opacity="1"></stop></linearGradient></defs><defs><linearGradient id="grad1_2" x1="50%" y1="100%" x2="100%" y2="0%"><stop offset="10%" stop-color="#282f3e" stop-opacity="1"></stop><stop offset="90%" stop-color="#152030" stop-opacity="1"></stop></linearGradient></defs><defs><linearGradient id="grad1_3" x1="50%" y1="100%" x2="100%" y2="0%"><stop offset="10%" stop-color="#282f3e" stop-opacity="1"></stop><stop offset="90%" stop-color="#3b3f4c" stop-opacity="1"></stop></linearGradient></defs><defs><linearGradient id="grad1_4" x1="50%" y1="100%" x2="100%" y2="0%"><stop offset="10%" stop-color="#4d505b" stop-opacity="1"></stop><stop offset="90%" stop-color="#3b3f4c" stop-opacity="1"></stop></linearGradient></defs><defs><linearGradient id="grad1_5" x1="50%" y1="100%" x2="100%" y2="0%"><stop offset="10%" stop-color="#4d505b" stop-opacity="1"></stop><stop offset="90%" stop-color="#60626b" stop-opacity="1"></stop></linearGradient></defs><defs><linearGradient id="grad1_6" x1="50%" y1="100%" x2="100%" y2="0%"><stop offset="10%" stop-color="#74747b" stop-opacity="1"></stop><stop offset="90%" stop-color="#60626b" stop-opacity="1"></stop></linearGradient></defs><defs><linearGradient id="grad1_7" x1="50%" y1="100%" x2="100%" y2="0%"><stop offset="10%" stop-color="#74747b" stop-opacity="1"></stop><stop offset="90%" stop-color="#87878b" stop-opacity="1"></stop></linearGradient></defs><defs><linearGradient id="grad2_0" x1="0%" y1="100%" x2="50%" y2="0%"><stop offset="10%" stop-color="#001122" stop-opacity="1"></stop><stop offset="90%" stop-color="#001122" stop-opacity="1"></stop></linearGradient></defs><defs><linearGradient id="grad2_1" x1="0%" y1="100%" x2="50%" y2="0%"><stop offset="10%" stop-color="#152030" stop-opacity="1"></stop><stop offset="90%" stop-color="#001122" stop-opacity="1"></stop></linearGradient></defs><defs><linearGradient id="grad2_2" x1="0%" y1="100%" x2="50%" y2="0%"><stop offset="10%" stop-color="#152030" stop-opacity="1"></stop><stop offset="90%" stop-color="#282f3e" stop-opacity="1"></stop></linearGradient></defs><defs><linearGradient id="grad2_3" x1="0%" y1="100%" x2="50%" y2="0%"><stop offset="10%" stop-color="#3b3f4c" stop-opacity="1"></stop><stop offset="90%" stop-color="#282f3e" stop-opacity="1"></stop></linearGradient></defs><defs><linearGradient id="grad2_4" x1="0%" y1="100%" x2="50%" y2="0%"><stop offset="10%" stop-color="#3b3f4c" stop-opacity="1"></stop><stop offset="90%" stop-color="#4d505b" stop-opacity="1"></stop></linearGradient></defs><defs><linearGradient id="grad2_5" x1="0%" y1="100%" x2="50%" y2="0%"><stop offset="10%" stop-color="#60626b" stop-opacity="1"></stop><stop offset="90%" stop-color="#4d505b" stop-opacity="1"></stop></linearGradient></defs><defs><linearGradient id="grad2_6" x1="0%" y1="100%" x2="50%" y2="0%"><stop offset="10%" stop-color="#60626b" stop-opacity="1"></stop><stop offset="90%" stop-color="#74747b" stop-opacity="1"></stop></linearGradient></defs><defs><linearGradient id="grad2_7" x1="0%" y1="100%" x2="50%" y2="0%"><stop offset="10%" stop-color="#87878b" stop-opacity="1"></stop><stop offset="90%" stop-color="#74747b" stop-opacity="1"></stop></linearGradient></defs><g transform="translate(900, 450)"><path d="M-382.5 0C-379.4 -41.1 -376.3 -82.3 -359.5 -116.8C-342.7 -151.3 -312.3 -179.3 -287.2 -208.7C-262.1 -238.1 -242.4 -268.9 -215.7 -296.9C-189 -324.9 -155.3 -350 -118.2 -363.8C-81.1 -377.6 -40.5 -380 0 -382.5L0 0Z" fill="#7d7d83"></path><path d="M-334.7 0C-332 -36 -329.2 -72 -314.6 -102.2C-299.9 -132.4 -273.2 -156.9 -251.3 -182.6C-229.4 -208.3 -212.1 -235.3 -188.8 -259.8C-165.4 -284.3 -135.9 -306.2 -103.4 -318.3C-70.9 -330.4 -35.5 -332.5 0 -334.7L0 0Z" fill="#6a6b73"></path><path d="M-286.9 0C-284.5 -30.9 -282.2 -61.7 -269.6 -87.6C-257 -113.5 -234.2 -134.5 -215.4 -156.5C-196.6 -178.5 -181.8 -201.7 -161.8 -222.7C-141.8 -243.7 -116.5 -262.5 -88.6 -272.8C-60.8 -283.2 -30.4 -285 0 -286.9L0 0Z" fill="#575963"></path><path d="M-239.1 0C-237.1 -25.7 -235.2 -51.4 -224.7 -73C-214.2 -94.6 -195.2 -112 -179.5 -130.4C-163.8 -148.8 -151.5 -168.1 -134.8 -185.6C-118.1 -203.1 -97.1 -218.7 -73.9 -227.4C-50.7 -236 -25.3 -237.5 0 -239.1L0 0Z" fill="#444854"></path><path d="M-191.2 0C-189.7 -20.6 -188.1 -41.1 -179.7 -58.4C-171.4 -75.7 -156.1 -89.6 -143.6 -104.3C-131.1 -119 -121.2 -134.5 -107.9 -148.5C-94.5 -162.4 -77.7 -175 -59.1 -181.9C-40.5 -188.8 -20.3 -190 0 -191.2L0 0Z" fill="#313745"></path><path d="M-143.4 0C-142.3 -15.4 -141.1 -30.9 -134.8 -43.8C-128.5 -56.8 -117.1 -67.2 -107.7 -78.2C-98.3 -89.3 -90.9 -100.8 -80.9 -111.3C-70.9 -121.8 -58.2 -131.2 -44.3 -136.4C-30.4 -141.6 -15.2 -142.5 0 -143.4L0 0Z" fill="#1f2837"></path><path d="M-95.6 0C-94.8 -10.3 -94.1 -20.6 -89.9 -29.2C-85.7 -37.8 -78.1 -44.8 -71.8 -52.2C-65.5 -59.5 -60.6 -67.2 -53.9 -74.2C-47.3 -81.2 -38.8 -87.5 -29.5 -90.9C-20.3 -94.4 -10.1 -95 0 -95.6L0 0Z" fill="#0c1929"></path><path d="M-47.8 0C-47.4 -5.1 -47 -10.3 -44.9 -14.6C-42.8 -18.9 -39 -22.4 -35.9 -26.1C-32.8 -29.8 -30.3 -33.6 -27 -37.1C-23.6 -40.6 -19.4 -43.7 -14.8 -45.5C-10.1 -47.2 -5.1 -47.5 0 -47.8L0 0Z" fill="#001122"></path></g><g transform="translate(0, 0)"><path d="M382.5 0C350.3 32.6 318 65.1 303.4 98.6C288.8 132 291.8 166.4 284 206.3C276.1 246.2 257.5 291.6 224.8 309.4C192.2 327.3 145.5 317.7 105.7 325.3C65.9 332.9 32.9 357.7 0 382.5L0 0Z" fill="#7d7d83"></path><path d="M334.7 0C306.5 28.5 278.3 57 265.5 86.3C252.7 115.5 255.3 145.6 248.5 180.5C241.6 215.4 225.3 255.1 196.7 270.8C168.1 286.4 127.3 278 92.5 284.6C57.6 291.2 28.8 313 0 334.7L0 0Z" fill="#6a6b73"></path><path d="M286.9 0C262.7 24.4 238.5 48.8 227.5 73.9C216.6 99 218.8 124.8 213 154.7C207.1 184.6 193.1 218.7 168.6 232.1C144.1 245.5 109.1 238.3 79.3 243.9C49.4 249.6 24.7 268.3 0 286.9L0 0Z" fill="#575963"></path><path d="M239.1 0C218.9 20.3 198.8 40.7 189.6 61.6C180.5 82.5 182.4 104 177.5 128.9C172.6 153.9 160.9 182.2 140.5 193.4C120.1 204.6 90.9 198.5 66.1 203.3C41.2 208 20.6 223.5 0 239.1L0 0Z" fill="#444854"></path><path d="M191.3 0C175.1 16.3 159 32.6 151.7 49.3C144.4 66 145.9 83.2 142 103.2C138.1 123.1 128.7 145.8 112.4 154.7C96.1 163.7 72.7 158.8 52.8 162.6C32.9 166.4 16.5 178.8 0 191.3L0 0Z" fill="#313745"></path><path d="M143.4 0C131.3 12.2 119.3 24.4 113.8 37C108.3 49.5 109.4 62.4 106.5 77.4C103.6 92.3 96.6 109.3 84.3 116C72.1 122.7 54.6 119.1 39.6 122C24.7 124.8 12.4 134.1 0 143.4L0 0Z" fill="#1f2837"></path><path d="M95.6 0C87.6 8.1 79.5 16.3 75.8 24.6C72.2 33 72.9 41.6 71 51.6C69 61.5 64.4 72.9 56.2 77.4C48 81.8 36.4 79.4 26.4 81.3C16.5 83.2 8.2 89.4 0 95.6L0 0Z" fill="#0c1929"></path><path d="M47.8 0C43.8 4.1 39.8 8.1 37.9 12.3C36.1 16.5 36.5 20.8 35.5 25.8C34.5 30.8 32.2 36.4 28.1 38.7C24 40.9 18.2 39.7 13.2 40.7C8.2 41.6 4.1 44.7 0 47.8L0 0Z" fill="#001122"></path></g></svg>