<svg id="visual" viewBox="0 0 900 450" width="900" height="450" xmlns="http://www.w3.org/2000/svg" xmlns:xlink="http://www.w3.org/1999/xlink" version="1.1"><rect x="0" y="0" width="900" height="450" fill="#87878b"></rect><defs><linearGradient id="grad1_0" x1="50%" y1="0%" x2="100%" y2="100%"><stop offset="10%" stop-color="#001122" stop-opacity="1"></stop><stop offset="90%" stop-color="#001122" stop-opacity="1"></stop></linearGradient></defs><defs><linearGradient id="grad1_1" x1="50%" y1="0%" x2="100%" y2="100%"><stop offset="10%" stop-color="#001122" stop-opacity="1"></stop><stop offset="90%" stop-color="#152030" stop-opacity="1"></stop></linearGradient></defs><defs><linearGradient id="grad1_2" x1="50%" y1="0%" x2="100%" y2="100%"><stop offset="10%" stop-color="#282f3e" stop-opacity="1"></stop><stop offset="90%" stop-color="#152030" stop-opacity="1"></stop></linearGradient></defs><defs><linearGradient id="grad1_3" x1="50%" y1="0%" x2="100%" y2="100%"><stop offset="10%" stop-color="#282f3e" stop-opacity="1"></stop><stop offset="90%" stop-color="#3b3f4c" stop-opacity="1"></stop></linearGradient></defs><defs><linearGradient id="grad1_4" x1="50%" y1="0%" x2="100%" y2="100%"><stop offset="10%" stop-color="#4d505b" stop-opacity="1"></stop><stop offset="90%" stop-color="#3b3f4c" stop-opacity="1"></stop></linearGradient></defs><defs><linearGradient id="grad1_5" x1="50%" y1="0%" x2="100%" y2="100%"><stop offset="10%" stop-color="#4d505b" stop-opacity="1"></stop><stop offset="90%" stop-color="#60626b" stop-opacity="1"></stop></linearGradient></defs><defs><linearGradient id="grad1_6" x1="50%" y1="0%" x2="100%" y2="100%"><stop offset="10%" stop-color="#74747b" stop-opacity="1"></stop><stop offset="90%" stop-color="#60626b" stop-opacity="1"></stop></linearGradient></defs><defs><linearGradient id="grad1_7" x1="50%" y1="0%" x2="100%" y2="100%"><stop offset="10%" stop-color="#74747b" stop-opacity="1"></stop><stop offset="90%" stop-color="#87878b" stop-opacity="1"></stop></linearGradient></defs><defs><linearGradient id="grad2_0" x1="0%" y1="0%" x2="50%" y2="100%"><stop offset="10%" stop-color="#001122" stop-opacity="1"></stop><stop offset="90%" stop-color="#001122" stop-opacity="1"></stop></linearGradient></defs><defs><linearGradient id="grad2_1" x1="0%" y1="0%" x2="50%" y2="100%"><stop offset="10%" stop-color="#152030" stop-opacity="1"></stop><stop offset="90%" stop-color="#001122" stop-opacity="1"></stop></linearGradient></defs><defs><linearGradient id="grad2_2" x1="0%" y1="0%" x2="50%" y2="100%"><stop offset="10%" stop-color="#152030" stop-opacity="1"></stop><stop offset="90%" stop-color="#282f3e" stop-opacity="1"></stop></linearGradient></defs><defs><linearGradient id="grad2_3" x1="0%" y1="0%" x2="50%" y2="100%"><stop offset="10%" stop-color="#3b3f4c" stop-opacity="1"></stop><stop offset="90%" stop-color="#282f3e" stop-opacity="1"></stop></linearGradient></defs><defs><linearGradient id="grad2_4" x1="0%" y1="0%" x2="50%" y2="100%"><stop offset="10%" stop-color="#3b3f4c" stop-opacity="1"></stop><stop offset="90%" stop-color="#4d505b" stop-opacity="1"></stop></linearGradient></defs><defs><linearGradient id="grad2_5" x1="0%" y1="0%" x2="50%" y2="100%"><stop offset="10%" stop-color="#60626b" stop-opacity="1"></stop><stop offset="90%" stop-color="#4d505b" stop-opacity="1"></stop></linearGradient></defs><defs><linearGradient id="grad2_6" x1="0%" y1="0%" x2="50%" y2="100%"><stop offset="10%" stop-color="#60626b" stop-opacity="1"></stop><stop offset="90%" stop-color="#74747b" stop-opacity="1"></stop></linearGradient></defs><defs><linearGradient id="grad2_7" x1="0%" y1="0%" x2="50%" y2="100%"><stop offset="10%" stop-color="#87878b" stop-opacity="1"></stop><stop offset="90%" stop-color="#74747b" stop-opacity="1"></stop></linearGradient></defs><g transform="translate(900, 0)"><path d="M0 382.5C-49.3 390.8 -98.5 399 -118.2 363.8C-137.9 328.5 -127.9 249.8 -165.2 227.3C-202.4 204.9 -286.8 238.6 -304.2 221C-321.6 203.4 -272 134.4 -273.9 89C-275.8 43.6 -329.1 21.8 -382.5 0L0 0Z" fill="#7d7d83"></path><path d="M0 334.7C-43.1 341.9 -86.2 349.1 -103.4 318.3C-120.6 287.5 -111.9 218.6 -144.5 198.9C-177.1 179.2 -250.9 208.8 -266.2 193.4C-281.4 178 -238 117.6 -239.7 77.9C-241.3 38.1 -288 19.1 -334.7 0L0 0Z" fill="#6a6b73"></path><path d="M0 286.9C-36.9 293.1 -73.9 299.3 -88.6 272.8C-103.4 246.4 -96 187.4 -123.9 170.5C-151.8 153.6 -215.1 179 -228.1 165.8C-241.2 152.5 -204 100.8 -205.4 66.7C-206.8 32.7 -246.9 16.3 -286.9 0L0 0Z" fill="#575963"></path><path d="M0 239.1C-30.8 244.2 -61.6 249.4 -73.9 227.4C-86.2 205.3 -80 156.1 -103.2 142.1C-126.5 128 -179.2 149.1 -190.1 138.1C-201 127.1 -170 84 -171.2 55.6C-172.4 27.2 -205.7 13.6 -239.1 0L0 0Z" fill="#444854"></path><path d="M0 191.3C-24.6 195.4 -49.3 199.5 -59.1 181.9C-68.9 164.3 -64 124.9 -82.6 113.7C-101.2 102.4 -143.4 119.3 -152.1 110.5C-160.8 101.7 -136 67.2 -137 44.5C-137.9 21.8 -164.6 10.9 -191.2 0L0 0Z" fill="#313745"></path><path d="M0 143.4C-18.5 146.5 -36.9 149.6 -44.3 136.4C-51.7 123.2 -48 93.7 -61.9 85.3C-75.9 76.8 -107.5 89.5 -114.1 82.9C-120.6 76.3 -102 50.4 -102.7 33.4C-103.4 16.3 -123.4 8.2 -143.4 0L0 0Z" fill="#1f2837"></path><path d="M0 95.6C-12.3 97.7 -24.6 99.8 -29.5 90.9C-34.5 82.1 -32 62.5 -41.3 56.8C-50.6 51.2 -71.7 59.7 -76 55.3C-80.4 50.8 -68 33.6 -68.5 22.2C-68.9 10.9 -82.3 5.4 -95.6 0L0 0Z" fill="#0c1929"></path><path d="M0 47.8C-6.2 48.8 -12.3 49.9 -14.8 45.5C-17.2 41.1 -16 31.2 -20.6 28.4C-25.3 25.6 -35.8 29.8 -38 27.6C-40.2 25.4 -34 16.8 -34.2 11.1C-34.5 5.4 -41.1 2.7 -47.8 0L0 0Z" fill="#001122"></path></g><g transform="translate(0, 450)"><path d="M0 -382.5C33.3 -347.2 66.6 -312 93 -286.3C119.4 -260.6 138.8 -244.4 171 -235.4C203.3 -226.5 248.4 -224.7 284.8 -206.9C321.2 -189.1 348.9 -155.3 363.8 -118.2C378.6 -81 380.6 -40.5 382.5 0L0 0Z" fill="#7d7d83"></path><path d="M0 -334.7C29.2 -303.8 58.3 -273 81.4 -250.5C104.5 -228 121.5 -213.8 149.7 -206C177.9 -198.1 217.3 -196.6 249.2 -181C281 -165.5 305.3 -135.9 318.3 -103.4C331.3 -70.9 333 -35.5 334.7 0L0 0Z" fill="#6a6b73"></path><path d="M0 -286.9C25 -260.4 50 -234 69.8 -214.7C89.5 -195.4 104.1 -183.3 128.3 -176.6C152.5 -169.8 186.3 -168.5 213.6 -155.2C240.9 -141.8 261.7 -116.5 272.8 -88.6C284 -60.8 285.4 -30.4 286.9 0L0 0Z" fill="#575963"></path><path d="M0 -239.1C20.8 -217 41.7 -195 58.1 -178.9C74.6 -162.8 86.8 -152.7 106.9 -147.1C127.1 -141.5 155.2 -140.4 178 -129.3C200.7 -118.2 218.1 -97.1 227.4 -73.9C236.6 -50.7 237.9 -25.3 239.1 0L0 0Z" fill="#444854"></path><path d="M0 -191.2C16.7 -173.6 33.3 -156 46.5 -143.1C59.7 -130.3 69.4 -122.2 85.5 -117.7C101.6 -113.2 124.2 -112.3 142.4 -103.5C160.6 -94.6 174.5 -77.7 181.9 -59.1C189.3 -40.5 190.3 -20.3 191.3 0L0 0Z" fill="#313745"></path><path d="M0 -143.4C12.5 -130.2 25 -117 34.9 -107.4C44.8 -97.7 52.1 -91.6 64.1 -88.3C76.2 -84.9 93.1 -84.3 106.8 -77.6C120.4 -70.9 130.9 -58.3 136.4 -44.3C142 -30.4 142.7 -15.2 143.4 0L0 0Z" fill="#1f2837"></path><path d="M0 -95.6C8.3 -86.8 16.7 -78 23.3 -71.6C29.8 -65.1 34.7 -61.1 42.8 -58.9C50.8 -56.6 62.1 -56.2 71.2 -51.7C80.3 -47.3 87.2 -38.8 90.9 -29.5C94.7 -20.3 95.1 -10.1 95.6 0L0 0Z" fill="#0c1929"></path><path d="M0 -47.8C4.2 -43.4 8.3 -39 11.6 -35.8C14.9 -32.6 17.4 -30.5 21.4 -29.4C25.4 -28.3 31 -28.1 35.6 -25.9C40.1 -23.6 43.6 -19.4 45.5 -14.8C47.3 -10.1 47.6 -5.1 47.8 0L0 0Z" fill="#001122"></path></g></svg>