<svg id="visual" viewBox="0 0 900 450" width="900" height="450" xmlns="http://www.w3.org/2000/svg" xmlns:xlink="http://www.w3.org/1999/xlink" version="1.1"><rect x="0" y="0" width="900" height="450" fill="#5189b3"></rect><g fill="none" stroke="#020c28" stroke-width="3"><circle r="24" cx="36" cy="356"></circle><circle r="0" cx="862" cy="447"></circle><circle r="16" cx="208" cy="358"></circle><circle r="22" cx="487" cy="31"></circle><circle r="17" cx="378" cy="345"></circle><circle r="13" cx="104" cy="36"></circle><circle r="0" cx="308" cy="435"></circle><circle r="12" cx="595" cy="409"></circle><circle r="15" cx="487" cy="363"></circle><circle r="14" cx="166" cy="149"></circle><circle r="9" cx="742" cy="76"></circle><circle r="2" cx="566" cy="69"></circle><circle r="19" cx="400" cy="64"></circle><circle r="9" cx="685" cy="165"></circle><circle r="3" cx="46" cy="287"></circle><circle r="5" cx="841" cy="260"></circle><circle r="5" cx="137" cy="267"></circle><circle r="10" cx="897" cy="348"></circle><circle r="1" cx="205" cy="279"></circle><circle r="11" cx="759" cy="377"></circle><circle r="22" cx="765" cy="149"></circle><circle r="17" cx="420" cy="444"></circle><circle r="-1" cx="338" cy="307"></circle><circle r="2" cx="233" cy="56"></circle><circle r="15" cx="715" cy="445"></circle><circle r="17" cx="296" cy="15"></circle><circle r="11" cx="424" cy="322"></circle><circle r="12" cx="328" cy="173"></circle><circle r="19" cx="854" cy="85"></circle><circle r="1" cx="16" cy="446"></circle><circle r="2" cx="798" cy="106"></circle><circle r="7" cx="649" cy="312"></circle><circle r="22" cx="62" cy="167"></circle><circle r="7" cx="263" cy="134"></circle><circle r="22" cx="620" cy="96"></circle><circle r="6" cx="564" cy="217"></circle><circle r="15" cx="86" cy="376"></circle><circle r="0" cx="651" cy="414"></circle><circle r="17" cx="373" cy="13"></circle><circle r="18" cx="873" cy="20"></circle><circle r="15" cx="380" cy="410"></circle><circle r="10" cx="244" cy="185"></circle><circle r="2" cx="65" cy="230"></circle><circle r="14" cx="677" cy="27"></circle><circle r="6" cx="470" cy="234"></circle><circle r="6" cx="411" cy="196"></circle><circle r="21" cx="779" cy="296"></circle><circle r="8" cx="568" cy="160"></circle><circle r="-1" cx="134" cy="352"></circle><circle r="17" cx="756" cy="250"></circle><circle r="21" cx="838" cy="188"></circle><circle r="19" cx="723" cy="306"></circle><circle r="15" cx="624" cy="181"></circle><circle r="18" cx="436" cy="148"></circle><circle r="15" cx="533" cy="293"></circle><circle r="16" cx="828" cy="314"></circle><circle r="8" cx="346" cy="71"></circle><circle r="19" cx="234" cy="434"></circle><circle r="11" cx="477" cy="116"></circle><circle r="22" cx="291" cy="382"></circle><circle r="19" cx="25" cy="27"></circle><circle r="5" cx="528" cy="110"></circle><circle r="12" cx="49" cy="78"></circle><circle r="12" cx="478" cy="437"></circle><circle r="6" cx="95" cy="123"></circle><circle r="-1" cx="378" cy="250"></circle><circle r="21" cx="590" cy="358"></circle><circle r="20" cx="690" cy="217"></circle><circle r="1" cx="519" cy="190"></circle><circle r="6" cx="198" cy="104"></circle><circle r="14" cx="681" cy="369"></circle><circle r="13" cx="181" cy="5"></circle><circle r="19" cx="768" cy="13"></circle><circle r="4" cx="275" cy="292"></circle><circle r="10" cx="424" cy="11"></circle><circle r="7" cx="133" cy="440"></circle><circle r="10" cx="7" cy="189"></circle><circle r="8" cx="785" cy="198"></circle><circle r="8" cx="314" cy="111"></circle><circle r="17" cx="307" cy="248"></circle><circle r="19" cx="518" cy="405"></circle><circle r="7" cx="610" cy="276"></circle><circle r="12" cx="559" cy="446"></circle><circle r="0" cx="806" cy="417"></circle><circle r="-1" cx="195" cy="225"></circle><circle r="11" cx="11" cy="250"></circle><circle r="16" cx="166" cy="60"></circle><circle r="15" cx="392" cy="116"></circle><circle r="8" cx="29" cy="127"></circle><circle r="8" cx="896" cy="188"></circle><circle r="0" cx="126" cy="212"></circle><circle r="21" cx="614" cy="8"></circle><circle r="10" cx="861" cy="140"></circle><circle r="9" cx="670" cy="83"></circle><circle r="-1" cx="896" cy="254"></circle><circle r="14" cx="439" cy="391"></circle><circle r="14" cx="821" cy="3"></circle><circle r="11" cx="286" cy="67"></circle><circle r="10" cx="859" cy="391"></circle><circle r="16" cx="249" cy="237"></circle><circle r="9" cx="659" cy="259"></circle><circle r="3" cx="89" cy="319"></circle><circle r="16" cx="814" cy="365"></circle><circle r="19" cx="169" cy="402"></circle><circle r="1" cx="474" cy="304"></circle><circle r="12" cx="536" cy="346"></circle><circle r="17" cx="535" cy="3"></circle><circle r="16" cx="67" cy="425"></circle><circle r="0" cx="717" cy="123"></circle><circle r="5" cx="236" cy="2"></circle><circle r="12" cx="806" cy="55"></circle></g></svg>