<?xml version="1.0" encoding="UTF-8" standalone="no"?>
<!-- Created with Inkscape (http://www.inkscape.org/) -->

<svg
   width="210mm"
   height="297mm"
   viewBox="0 0 210 297"
   version="1.1"
   id="svg5"
   xml:space="preserve"
   inkscape:export-filename="bitmap.svg"
   inkscape:export-xdpi="92.770477"
   inkscape:export-ydpi="92.770477"
   sodipodi:docname="icons8-computer-vision-100.svg"
   inkscape:version="1.2.2 (732a01da63, 2022-12-09)"
   xmlns:inkscape="http://www.inkscape.org/namespaces/inkscape"
   xmlns:sodipodi="http://sodipodi.sourceforge.net/DTD/sodipodi-0.dtd"
   xmlns="http://www.w3.org/2000/svg"
   xmlns:svg="http://www.w3.org/2000/svg"><sodipodi:namedview
     id="namedview7"
     pagecolor="#ffffff"
     bordercolor="#000000"
     borderopacity="0.25"
     inkscape:showpageshadow="2"
     inkscape:pageopacity="0.0"
     inkscape:pagecheckerboard="0"
     inkscape:deskcolor="#d1d1d1"
     inkscape:document-units="mm"
     showgrid="false"
     inkscape:zoom="0.89263468"
     inkscape:cx="166.36145"
     inkscape:cy="562.38012"
     inkscape:window-width="2560"
     inkscape:window-height="1377"
     inkscape:window-x="1912"
     inkscape:window-y="-8"
     inkscape:window-maximized="1"
     inkscape:current-layer="g4550" /><defs
     id="defs2" /><g
     inkscape:label="Layer 1"
     inkscape:groupmode="layer"
     id="layer1"><g
       id="g4550"
       transform="matrix(6.6728079,0,0,6.6728079,-515.70366,-1150.2085)"
       inkscape:export-filename="g4550.svg"
       inkscape:export-xdpi="12.558206"
       inkscape:export-ydpi="12.558206"
       style="stroke-width:0.149862;fill:#1a1a1a"><path
         style="fill:#1a1a1a;fill-opacity:1;stroke-width:0.149862"
         d="m 360.04883,687.87305 v 18.89843 l 32.73047,18.89844 v -18.89844 z m -65.46289,18.89843 v 18.89844 l 16.36523,9.44727 V 716.2207 Z m 65.46289,0 -32.73242,18.89844 v 56.69141 l 16.36523,9.44922 v -37.79493 l 16.36719,9.44922 15.7814,-28.34765 -15.7814,-9.44727 z"
         transform="scale(0.26458333)"
         id="path4508"
         sodipodi:nodetypes="ccccccccccccccccccc" /><path
         style="fill:#1a1a1a;fill-opacity:1;stroke-width:0.149862"
         d="m 360.04883,687.87305 -49.09766,28.34765 v 18.89649 l 16.44541,-9.44727 16.28506,9.44727 16.36719,-9.44727 z m 49.09765,9.44922 -16.36718,9.44921 v 18.89844 l 16.36718,-9.44922 z m -32.73242,37.79492 -16.36523,9.44922 v 18.89843 l 16.36523,-9.44922 z m -16.36523,9.44922 -17.87817,9.44921 1.51098,37.79493 16.36719,-9.44922 z"
         transform="scale(0.26458333)"
         id="path4491"
         sodipodi:nodetypes="cccccccccccccccccccccc" /><path
         style="fill:#1a1a1a;fill-opacity:1;stroke-width:0.149862"
         d="m 360.04883,668.97656 -65.46289,37.79492 16.36523,28.34571 49.09766,-28.34571 32.73047,18.89844 16.36718,-28.34765 z m 0,56.69336 -16.36719,9.44727 16.36719,9.44922 16.36523,-9.44922 z"
         transform="scale(0.26458333)"
         id="path4506"
         sodipodi:nodetypes="cccccccccccc" /></g></g></svg>
