<svg class="svg-icon" style="width: 1em;height: 1em;vertical-align: middle;fill: currentColor;overflow: hidden;" viewBox="0 0 1024 1024" version="1.1" xmlns="http://www.w3.org/2000/svg"><path d="M183.4 66.5h655.3c11.4 0.8 22.8 2.1 33.7 5.6 29.3 9 54.7 30.2 68.7 57.5 7.9 15.1 12.2 31.9 13 48.9v475.1c-1.3 32.9-17.3 64.7-42.9 85.4 25.6 20.7 41.6 52.6 42.9 85.5v9.9c-1.1 23.6-9.4 47-23.9 65.7-17.9 23.6-45.2 39.8-74.4 44.3-11.4 1.9-23.1 1.4-34.6 1.4H209.8c-14.7-0.2-29.7 0.9-44.2-1.9-28.7-5-55.1-21.4-72.5-44.8-17.6-23.2-25.7-53.2-22.5-82.2 3-30.2 18.7-58.9 42.3-78-27.1-21.9-43.6-56.5-42.8-91.4v-468c0.7-27.5 11.7-54.7 30.4-74.9 17.4-19.2 41.5-32.3 67.1-36.3 5.1-0.9 10.5-1 15.8-1.8m140.3 152.7c-15 13-22.9 32.5-24.4 52-2 26 4.6 52 14.1 76 8.7 21.9 20 42.7 32.7 62.6-9.9 15.3-18.8 31.4-26.5 48-7.7 16.9-14.1 34.4-17.7 52.7-3 15.1-4.1 30.8-1.6 46 2.5 15.4 9.4 30.3 20.6 41.3 12 11.9 28.3 18.7 44.9 20.6 18.7 2.2 37.6-0.4 55.7-5.4 31-8.7 59.8-23.7 87-40.9 24.3 15.5 50.1 29 77.6 38.1 17.4 5.6 35.5 9.4 53.8 8.9 17.9-0.1 36.2-5.1 50.4-16.3 12.1-9.4 20.5-23.2 24.4-38 4.2-15.6 3.9-32.1 1.4-48-3.3-20.8-10.4-40.9-19.3-60-7.6-16.3-16.3-32-26.1-47.1 16.4-26 30.9-53.5 39.8-83 5.5-18.5 8.7-38 6.8-57.3-1.6-16.2-7.5-32.3-18.4-44.5-10.3-11.8-24.8-19.3-39.9-22.5-18.6-3.9-38-2-56.3 2.2-33.8 8.2-65 24.3-94.2 42.7-18.9-12.1-38.7-22.9-59.5-31.4-22.9-9.4-47.4-16.1-72.4-15.6-19.1 0.3-38.6 6-52.9 18.9m-17.6 580.9c-5.3 0.4-10.4 2.7-14.3 6.3-8 7.4-9.5 20.5-3.5 29.6 4 6.5 11.5 10.6 19.1 10.7h419.7c6 0 12-2.4 16.2-6.7 5.7-5.4 8.1-13.9 6.4-21.5-2.1-11.4-13.7-19.7-25.2-18.5-139.5 0.1-278.9 0-418.4 0.1z"  /><path d="M360.2 250.5c10.2-4.6 21.9-4.1 32.8-2.5 26.4 4.4 51.1 15.8 74.2 29-33.8 27-64.6 57.8-91.6 91.6-12.5-21.8-23.2-45-28.2-69.7-2.1-11-3-22.6 0.2-33.5 1.9-6.4 6.4-12.2 12.6-14.9zM600.3 253.8c13.9-4.4 28.6-7.9 43.3-6.6 8.1 0.8 16.8 3.6 21.8 10.4 5.8 8.4 6.3 19.2 5.7 29.1-1.4 16.8-6.7 32.9-13.1 48.4-4.9 11.5-10.6 22.6-16.8 33.5-27.1-33.8-57.8-64.6-91.6-91.6 16-9.3 32.9-17.4 50.7-23.2zM469.1 337c12.5-11.5 25.6-22.5 39.3-32.6 26.2 19.4 50.3 41.6 72.4 65.6 11.7 12.7 22.8 25.9 33.1 39.8-30 39.8-65.6 75.5-105.5 105.4-39.8-30-75.4-65.6-105.4-105.4 19.5-26.4 41.9-50.6 66.1-72.8m28.8 6.5c-21 3.1-40 17-49.4 36.1-8.1 15.9-9.4 35.1-3.6 52 4.8 14.3 14.6 26.7 27.3 34.8 11 7.2 24.3 10.9 37.4 10.6 15.6-0.2 31-6 42.7-16.3 11.4-9.8 19.3-23.5 22.1-38.2 2.6-13.7 0.9-28.3-5.1-41-6.5-13.9-17.8-25.5-31.7-32.1-12.2-6.1-26.3-8.1-39.7-5.9z"  /><path d="M502.9 390c11.3-3.6 24.2 5 25.7 16.7 2.1 11.8-8.1 23.7-20.1 23.5-10.9 0.3-20.6-9.3-20.7-20.1-0.2-9 6.3-17.7 15.1-20.1zM356 491.5c5.4-14.1 12.1-27.6 19.7-40.6 27 33.8 57.8 64.5 91.5 91.6-16.3 9.4-33.4 17.6-51.4 23.4-14 4.5-28.8 7.7-43.5 6.3-8-0.9-16.5-3.8-21.2-10.8-5.5-8.3-5.9-18.7-5.4-28.4 1.2-14.3 5.3-28.1 10.3-41.5zM549.5 542.5c33.7-27.1 64.6-57.8 91.5-91.7 9 15.7 17 32.1 22.8 49.4 4.6 14.1 8.2 28.8 7.2 43.8-0.6 7.4-2.6 15.2-8 20.6-5.4 5.3-13.1 7.2-20.4 7.8-17 1.1-33.7-3.5-49.5-9.2-15.2-5.5-29.6-12.7-43.6-20.7z"  /></svg>