<svg id="visual" viewBox="0 0 900 300" width="900" height="300" xmlns="http://www.w3.org/2000/svg" xmlns:xlink="http://www.w3.org/1999/xlink" version="1.1"><rect x="0" y="0" width="900" height="300" fill="#87878b"></rect><path d="M0 110L25 106.7C50 103.3 100 96.7 150 103.3C200 110 250 130 300 134.7C350 139.3 400 128.7 450 126.7C500 124.7 550 131.3 600 124.8C650 118.3 700 98.7 750 87.7C800 76.7 850 74.3 875 73.2L900 72L900 301L875 301C850 301 800 301 750 301C700 301 650 301 600 301C550 301 500 301 450 301C400 301 350 301 300 301C250 301 200 301 150 301C100 301 50 301 25 301L0 301Z" fill="#617eff"></path><path d="M0 130L25 130C50 130 100 130 150 133.5C200 137 250 144 300 145.7C350 147.3 400 143.7 450 138.5C500 133.3 550 126.7 600 129.3C650 132 700 144 750 149.8C800 155.7 850 155.3 875 155.2L900 155L900 301L875 301C850 301 800 301 750 301C700 301 650 301 600 301C550 301 500 301 450 301C400 301 350 301 300 301C250 301 200 301 150 301C100 301 50 301 25 301L0 301Z" fill="#4870da"></path><path d="M0 170L25 167.7C50 165.3 100 160.7 150 158.5C200 156.3 250 156.7 300 158.3C350 160 400 163 450 166.7C500 170.3 550 174.7 600 176.7C650 178.7 700 178.3 750 175.3C800 172.3 850 166.7 875 163.8L900 161L900 301L875 301C850 301 800 301 750 301C700 301 650 301 600 301C550 301 500 301 450 301C400 301 350 301 300 301C250 301 200 301 150 301C100 301 50 301 25 301L0 301Z" fill="#3662b5"></path><path d="M0 190L25 197.5C50 205 100 220 150 221.3C200 222.7 250 210.3 300 208.8C350 207.3 400 216.7 450 216.5C500 216.3 550 206.7 600 201.7C650 196.7 700 196.3 750 200.3C800 204.3 850 212.7 875 216.8L900 221L900 301L875 301C850 301 800 301 750 301C700 301 650 301 600 301C550 301 500 301 450 301C400 301 350 301 300 301C250 301 200 301 150 301C100 301 50 301 25 301L0 301Z" fill="#2c5391"></path><path d="M0 234L25 236.3C50 238.7 100 243.3 150 248.3C200 253.3 250 258.7 300 256.8C350 255 400 246 450 246.8C500 247.7 550 258.3 600 260.7C650 263 700 257 750 256.8C800 256.7 850 262.3 875 265.2L900 268L900 301L875 301C850 301 800 301 750 301C700 301 650 301 600 301C550 301 500 301 450 301C400 301 350 301 300 301C250 301 200 301 150 301C100 301 50 301 25 301L0 301Z" fill="#28446d"></path></svg>