<svg id="visual" viewBox="0 0 900 300" width="900" height="300" xmlns="http://www.w3.org/2000/svg" xmlns:xlink="http://www.w3.org/1999/xlink" version="1.1"><rect x="0" y="0" width="900" height="300" fill="#87878b"></rect><path d="M0 158L25 164.3C50 170.7 100 183.3 150 186.3C200 189.3 250 182.7 300 176.2C350 169.7 400 163.3 450 168.8C500 174.3 550 191.7 600 200.8C650 210 700 211 750 210.8C800 210.7 850 209.3 875 208.7L900 208L900 0L875 0C850 0 800 0 750 0C700 0 650 0 600 0C550 0 500 0 450 0C400 0 350 0 300 0C250 0 200 0 150 0C100 0 50 0 25 0L0 0Z" fill="#fa7268"></path><path d="M0 147L25 150.8C50 154.7 100 162.3 150 163C200 163.7 250 157.3 300 150.7C350 144 400 137 450 134.5C500 132 550 134 600 141C650 148 700 160 750 158.7C800 157.3 850 142.7 875 135.3L900 128L900 0L875 0C850 0 800 0 750 0C700 0 650 0 600 0C550 0 500 0 450 0C400 0 350 0 300 0C250 0 200 0 150 0C100 0 50 0 25 0L0 0Z" fill="#ef5f67"></path><path d="M0 120L25 123.3C50 126.7 100 133.3 150 136.3C200 139.3 250 138.7 300 130.5C350 122.3 400 106.7 450 99C500 91.3 550 91.7 600 97.7C650 103.7 700 115.3 750 117.7C800 120 850 113 875 109.5L900 106L900 0L875 0C850 0 800 0 750 0C700 0 650 0 600 0C550 0 500 0 450 0C400 0 350 0 300 0C250 0 200 0 150 0C100 0 50 0 25 0L0 0Z" fill="#e34c67"></path><path d="M0 103L25 97.8C50 92.7 100 82.3 150 79.8C200 77.3 250 82.7 300 82.3C350 82 400 76 450 72C500 68 550 66 600 68C650 70 700 76 750 78.2C800 80.3 850 78.7 875 77.8L900 77L900 0L875 0C850 0 800 0 750 0C700 0 650 0 600 0C550 0 500 0 450 0C400 0 350 0 300 0C250 0 200 0 150 0C100 0 50 0 25 0L0 0Z" fill="#d53867"></path><path d="M0 31L25 34.5C50 38 100 45 150 50.7C200 56.3 250 60.7 300 62.5C350 64.3 400 63.7 450 59.2C500 54.7 550 46.3 600 43.8C650 41.3 700 44.7 750 48.2C800 51.7 850 55.3 875 57.2L900 59L900 0L875 0C850 0 800 0 750 0C700 0 650 0 600 0C550 0 500 0 450 0C400 0 350 0 300 0C250 0 200 0 150 0C100 0 50 0 25 0L0 0Z" fill="#c62368"></path></svg>