<?xml version="1.0" encoding="UTF-8" standalone="no"?>
<!-- Created with Inkscape (http://www.inkscape.org/) -->

<svg
   width="352"
   height="352"
   viewBox="0 0 352 352"
   version="1.1"
   id="SVGRoot"
   xmlns="http://www.w3.org/2000/svg"
   xmlns:svg="http://www.w3.org/2000/svg">
  <defs
     id="defs1657" />
  <g
     id="layer1">
    <path
       id="rect1837"
       style="fill:#ececec;fill-rule:evenodd"
       d="m 86.100747,29.196759 -3.712891,2.396484 c -4.828584,3.116586 -7.793697,7.959082 -8.720703,13.181641 -0.752946,2.098151 -1.185547,4.351229 -1.185547,6.714844 V 291.90965 c 0,10.97137 -14.139227,13.86351 -3.167864,13.86351 10.971366,0 42.777238,-2.89214 42.777238,-13.86351 V 114.13036 l 117.91406,182.6875 c 1.15837,1.79468 2.55831,3.33071 4.12305,4.61132 3.35657,6.1379 9.86512,10.28516 17.38086,10.28516 10.97135,0 19.80469,-8.83333 19.80469,-19.80469 V 51.489728 c 0,-10.971356 19.68431,-23.367436 8.71296,-23.367442 -10.97136,0 -48.32038,12.396086 -48.32038,23.367442 V 218.26707 L 113.47965,35.097149 c -8.99232,-7.425036 -20.327378,-9.049771 -27.378903,-5.90039 z" />
  </g>
</svg>
