<svg id="visual" viewBox="0 0 1200 400" width="1200" height="400" xmlns="http://www.w3.org/2000/svg" xmlns:xlink="http://www.w3.org/1999/xlink" version="1.1"><g stroke-width="2" stroke-linejoin="bevel"><path d="M561 186L557.3 207L636.7 235Z" fill="#67686a" stroke="#000000"></path><path d="M636.7 235L653.7 193L561 186Z" fill="#505359" stroke="#000000"></path><path d="M557.3 207L550 274L636.7 235Z" fill="#67686a" stroke="#000000"></path><path d="M653.7 193L546 125L561 186Z" fill="#444951" stroke="#000000"></path><path d="M561 186L457.3 224L557.3 207Z" fill="#505359" stroke="#000000"></path><path d="M457.3 224L536.3 306L550 274Z" fill="#0d1a29" stroke="#000000"></path><path d="M457.3 224L550 274L557.3 207Z" fill="#2e3541" stroke="#000000"></path><path d="M615 374L688.7 319L636.7 235Z" fill="#444951" stroke="#000000"></path><path d="M615 374L636.7 235L550 274Z" fill="#737373" stroke="#000000"></path><path d="M636.7 235L764.4 262L653.7 193Z" fill="#232c39" stroke="#000000"></path><path d="M454.6 123L457.3 224L561 186Z" fill="#444951" stroke="#000000"></path><path d="M546 125L454.6 123L561 186Z" fill="#67686a" stroke="#000000"></path><path d="M536.3 306L615 374L550 274Z" fill="#2e3541" stroke="#000000"></path><path d="M688.7 319L764.4 262L636.7 235Z" fill="#67686a" stroke="#000000"></path><path d="M653.7 193L710.7 40L546 125Z" fill="#444951" stroke="#000000"></path><path d="M716.4 400L745.4 317L688.7 319Z" fill="#232c39" stroke="#000000"></path><path d="M688.7 319L745.4 317L764.4 262Z" fill="#444951" stroke="#000000"></path><path d="M764.4 262L781.4 152L653.7 193Z" fill="#444951" stroke="#000000"></path><path d="M454.6 123L430.6 126L457.3 224Z" fill="#5b5e62" stroke="#000000"></path><path d="M781.4 152L710.7 40L653.7 193Z" fill="#001122" stroke="#000000"></path><path d="M546 125L473.3 37L454.6 123Z" fill="#5b5e62" stroke="#000000"></path><path d="M454.6 123L473.3 37L430.6 126Z" fill="#444951" stroke="#000000"></path><path d="M467.3 400L552 400L536.3 306Z" fill="#5b5e62" stroke="#000000"></path><path d="M536.3 306L552 400L615 374Z" fill="#737373" stroke="#000000"></path><path d="M710.7 40L591 0L546 125Z" fill="#393f49" stroke="#000000"></path><path d="M615 374L669.7 400L688.7 319Z" fill="#67686a" stroke="#000000"></path><path d="M552 400L669.7 400L615 374Z" fill="#444951" stroke="#000000"></path><path d="M591 0L473.3 37L546 125Z" fill="#505359" stroke="#000000"></path><path d="M764.4 262L818.1 199L781.4 152Z" fill="#505359" stroke="#000000"></path><path d="M781.4 152L768.4 39L710.7 40Z" fill="#0d1a29" stroke="#000000"></path><path d="M860.1 212L818.1 199L764.4 262Z" fill="#0d1a29" stroke="#000000"></path><path d="M367.9 177L384.9 228L457.3 224Z" fill="#67686a" stroke="#000000"></path><path d="M457.3 224L384.6 280L536.3 306Z" fill="#001122" stroke="#000000"></path><path d="M669.7 400L716.4 400L688.7 319Z" fill="#444951" stroke="#000000"></path><path d="M820.1 355L860.1 212L764.4 262Z" fill="#2e3541" stroke="#000000"></path><path d="M818.1 199L821.1 132L781.4 152Z" fill="#182331" stroke="#000000"></path><path d="M384.9 228L384.6 280L457.3 224Z" fill="#232c39" stroke="#000000"></path><path d="M821.1 132L768.4 39L781.4 152Z" fill="#737373" stroke="#000000"></path><path d="M710.7 40L731.7 0L591 0Z" fill="#232c39" stroke="#000000"></path><path d="M298.9 111L367.9 177L430.6 126Z" fill="#0d1a29" stroke="#000000"></path><path d="M430.6 126L367.9 177L457.3 224Z" fill="#001122" stroke="#000000"></path><path d="M248.1 249L293.1 366L384.6 280Z" fill="#505359" stroke="#000000"></path><path d="M393.6 356L467.3 400L536.3 306Z" fill="#5b5e62" stroke="#000000"></path><path d="M746.4 0L731.7 0L710.7 40Z" fill="#0d1a29" stroke="#000000"></path><path d="M591 0L463.3 0L473.3 37Z" fill="#737373" stroke="#000000"></path><path d="M473.3 37L388.6 0L430.6 126Z" fill="#2e3541" stroke="#000000"></path><path d="M851.1 0L746.4 0L768.4 39Z" fill="#232c39" stroke="#000000"></path><path d="M768.4 39L746.4 0L710.7 40Z" fill="#737373" stroke="#000000"></path><path d="M293.1 366L381.9 323L384.6 280Z" fill="#444951" stroke="#000000"></path><path d="M384.6 280L381.9 323L536.3 306Z" fill="#2e3541" stroke="#000000"></path><path d="M820.1 355L764.4 262L745.4 317Z" fill="#505359" stroke="#000000"></path><path d="M818.1 199L860.1 212L821.1 132Z" fill="#393f49" stroke="#000000"></path><path d="M381.9 323L393.6 356L536.3 306Z" fill="#444951" stroke="#000000"></path><path d="M804.1 400L820.1 355L745.4 317Z" fill="#737373" stroke="#000000"></path><path d="M716.4 400L804.1 400L745.4 317Z" fill="#505359" stroke="#000000"></path><path d="M381.6 400L388.9 400L393.6 356Z" fill="#5b5e62" stroke="#000000"></path><path d="M393.6 356L388.9 400L467.3 400Z" fill="#0d1a29" stroke="#000000"></path><path d="M381.6 400L393.6 356L293.1 366Z" fill="#2e3541" stroke="#000000"></path><path d="M293.1 366L393.6 356L381.9 323Z" fill="#393f49" stroke="#000000"></path><path d="M463.3 0L388.6 0L473.3 37Z" fill="#0d1a29" stroke="#000000"></path><path d="M356.9 0L298.9 111L430.6 126Z" fill="#505359" stroke="#000000"></path><path d="M367.9 177L248.1 249L384.9 228Z" fill="#5b5e62" stroke="#000000"></path><path d="M388.6 0L356.9 0L430.6 126Z" fill="#505359" stroke="#000000"></path><path d="M821.1 132L851.1 0L768.4 39Z" fill="#737373" stroke="#000000"></path><path d="M958.9 128L851.1 0L821.1 132Z" fill="#5b5e62" stroke="#000000"></path><path d="M288.1 111L286.1 126L298.9 111Z" fill="#0d1a29" stroke="#000000"></path><path d="M298.9 111L286.1 126L367.9 177Z" fill="#67686a" stroke="#000000"></path><path d="M282.1 0L288.1 111L298.9 111Z" fill="#232c39" stroke="#000000"></path><path d="M248.1 249L384.6 280L384.9 228Z" fill="#0d1a29" stroke="#000000"></path><path d="M286.1 126L248.1 249L367.9 177Z" fill="#182331" stroke="#000000"></path><path d="M227.4 268L248.1 249L176.4 216Z" fill="#505359" stroke="#000000"></path><path d="M983.9 304L966.9 203L860.1 212Z" fill="#505359" stroke="#000000"></path><path d="M860.1 212L958.9 128L821.1 132Z" fill="#444951" stroke="#000000"></path><path d="M983.9 304L860.1 212L820.1 355Z" fill="#001122" stroke="#000000"></path><path d="M970.9 171L958.9 128L860.1 212Z" fill="#67686a" stroke="#000000"></path><path d="M966.9 203L970.9 171L860.1 212Z" fill="#444951" stroke="#000000"></path><path d="M804.1 400L919.9 400L820.1 355Z" fill="#505359" stroke="#000000"></path><path d="M227.4 268L278.1 400L293.1 366Z" fill="#001122" stroke="#000000"></path><path d="M293.1 366L278.1 400L381.6 400Z" fill="#5b5e62" stroke="#000000"></path><path d="M356.9 0L282.1 0L298.9 111Z" fill="#5b5e62" stroke="#000000"></path><path d="M213.4 159L248.1 249L286.1 126Z" fill="#0d1a29" stroke="#000000"></path><path d="M970.9 171L975.6 126L958.9 128Z" fill="#505359" stroke="#000000"></path><path d="M958.9 128L934.9 0L851.1 0Z" fill="#001122" stroke="#000000"></path><path d="M213.4 159L286.1 126L288.1 111Z" fill="#393f49" stroke="#000000"></path><path d="M248.1 249L227.4 268L293.1 366Z" fill="#5b5e62" stroke="#000000"></path><path d="M975.6 126L934.9 0L958.9 128Z" fill="#5b5e62" stroke="#000000"></path><path d="M212.4 0L213.4 159L288.1 111Z" fill="#0d1a29" stroke="#000000"></path><path d="M919.9 400L983.9 304L820.1 355Z" fill="#444951" stroke="#000000"></path><path d="M1069.6 214L975.6 126L970.9 171Z" fill="#393f49" stroke="#000000"></path><path d="M1069.6 214L1042.6 76L975.6 126Z" fill="#67686a" stroke="#000000"></path><path d="M919.9 400L981.6 341L983.9 304Z" fill="#2e3541" stroke="#000000"></path><path d="M213.4 159L176.4 216L248.1 249Z" fill="#0d1a29" stroke="#000000"></path><path d="M227.4 268L130.7 400L278.1 400Z" fill="#737373" stroke="#000000"></path><path d="M140.7 208L176.4 216L213.4 159Z" fill="#182331" stroke="#000000"></path><path d="M282.1 0L212.4 0L288.1 111Z" fill="#444951" stroke="#000000"></path><path d="M919.9 400L1003.6 400L981.6 341Z" fill="#0d1a29" stroke="#000000"></path><path d="M1062.3 290L1069.6 214L983.9 304Z" fill="#393f49" stroke="#000000"></path><path d="M1069.6 214L970.9 171L966.9 203Z" fill="#505359" stroke="#000000"></path><path d="M1069.6 214L966.9 203L983.9 304Z" fill="#393f49" stroke="#000000"></path><path d="M975.6 126L1042.6 76L934.9 0Z" fill="#444951" stroke="#000000"></path><path d="M102.7 132L140.7 208L213.4 159Z" fill="#182331" stroke="#000000"></path><path d="M176.4 216L130.7 400L227.4 268Z" fill="#001122" stroke="#000000"></path><path d="M1062.3 290L983.9 304L1065.3 309Z" fill="#505359" stroke="#000000"></path><path d="M1065.3 309L983.9 304L981.6 341Z" fill="#182331" stroke="#000000"></path><path d="M1003.6 400L1065.3 309L981.6 341Z" fill="#182331" stroke="#000000"></path><path d="M1062.3 290L1155.3 196L1069.6 214Z" fill="#393f49" stroke="#000000"></path><path d="M212.4 0L122.4 61L213.4 159Z" fill="#737373" stroke="#000000"></path><path d="M122.4 61L102.7 132L213.4 159Z" fill="#0d1a29" stroke="#000000"></path><path d="M1123.3 0L1067.6 0L1042.6 76Z" fill="#505359" stroke="#000000"></path><path d="M1042.6 76L1067.6 0L934.9 0Z" fill="#182331" stroke="#000000"></path><path d="M117.4 400L130.7 400L140.7 208Z" fill="#393f49" stroke="#000000"></path><path d="M140.7 208L130.7 400L176.4 216Z" fill="#5b5e62" stroke="#000000"></path><path d="M41.7 358L117.4 400L140.7 208Z" fill="#2e3541" stroke="#000000"></path><path d="M122.4 61L73.7 79L102.7 132Z" fill="#393f49" stroke="#000000"></path><path d="M0 253L41.7 358L140.7 208Z" fill="#444951" stroke="#000000"></path><path d="M45.7 0L73.7 79L122.4 61Z" fill="#393f49" stroke="#000000"></path><path d="M1069.6 214L1155.3 196L1042.6 76Z" fill="#232c39" stroke="#000000"></path><path d="M1200 230L1155.3 196L1200 284Z" fill="#737373" stroke="#000000"></path><path d="M1200 183L1155.3 196L1200 230Z" fill="#182331" stroke="#000000"></path><path d="M1155.3 36L1123.3 0L1042.6 76Z" fill="#737373" stroke="#000000"></path><path d="M1200 89L1155.3 36L1042.6 76Z" fill="#0d1a29" stroke="#000000"></path><path d="M0 253L140.7 208L102.7 132Z" fill="#67686a" stroke="#000000"></path><path d="M212.4 0L45.7 0L122.4 61Z" fill="#001122" stroke="#000000"></path><path d="M0 126L0 253L102.7 132Z" fill="#182331" stroke="#000000"></path><path d="M1155.3 196L1062.3 290L1200 284Z" fill="#2e3541" stroke="#000000"></path><path d="M1155.3 196L1200 89L1042.6 76Z" fill="#001122" stroke="#000000"></path><path d="M1200 284L1062.3 290L1065.3 309Z" fill="#232c39" stroke="#000000"></path><path d="M1003.6 400L1169.3 400L1065.3 309Z" fill="#0d1a29" stroke="#000000"></path><path d="M1169.3 400L1200 284L1065.3 309Z" fill="#505359" stroke="#000000"></path><path d="M0 126L102.7 132L73.7 79Z" fill="#2e3541" stroke="#000000"></path><path d="M0 51L0 126L73.7 79Z" fill="#232c39" stroke="#000000"></path><path d="M1200 183L1200 89L1155.3 196Z" fill="#0d1a29" stroke="#000000"></path><path d="M0 253L0 343L41.7 358Z" fill="#444951" stroke="#000000"></path><path d="M41.7 358L0 400L117.4 400Z" fill="#393f49" stroke="#000000"></path><path d="M45.7 0L0 51L73.7 79Z" fill="#232c39" stroke="#000000"></path><path d="M1169.3 400L1200 400L1200 284Z" fill="#393f49" stroke="#000000"></path><path d="M1200 89L1200 0L1155.3 36Z" fill="#444951" stroke="#000000"></path><path d="M1155.3 36L1200 0L1123.3 0Z" fill="#67686a" stroke="#000000"></path><path d="M0 343L0 400L41.7 358Z" fill="#182331" stroke="#000000"></path><path d="M45.7 0L0 0L0 51Z" fill="#2e3541" stroke="#000000"></path></g></svg>