<svg id="visual" viewBox="0 0 900 300" width="900" height="300" xmlns="http://www.w3.org/2000/svg" xmlns:xlink="http://www.w3.org/1999/xlink" version="1.1"><path d="M809 300L800 300L800 280L809 280L809 260L737 260L737 240L827 240L827 220L755 220L755 200L773 200L773 180L791 180L791 160L791 160L791 140L773 140L773 120L809 120L809 100L737 100L737 80L809 80L809 60L755 60L755 40L818 40L818 20L827 20L827 0L900 0L900 20L900 20L900 40L900 40L900 60L900 60L900 80L900 80L900 100L900 100L900 120L900 120L900 140L900 140L900 160L900 160L900 180L900 180L900 200L900 200L900 220L900 220L900 240L900 240L900 260L900 260L900 280L900 280L900 300L900 300Z" fill="#9ac179"></path><path d="M728 300L710 300L710 280L692 280L692 260L629 260L629 240L746 240L746 220L692 220L692 200L710 200L710 180L692 180L692 160L719 160L719 140L710 140L710 120L710 120L710 100L656 100L656 80L701 80L701 60L674 60L674 40L755 40L755 20L737 20L737 0L828 0L828 20L819 20L819 40L756 40L756 60L810 60L810 80L738 80L738 100L810 100L810 120L774 120L774 140L792 140L792 160L792 160L792 180L774 180L774 200L756 200L756 220L828 220L828 240L738 240L738 260L810 260L810 280L801 280L801 300L810 300Z" fill="#8abe73"></path><path d="M458 300L404 300L404 280L485 280L485 260L359 260L359 240L593 240L593 220L386 220L386 200L458 200L458 180L548 180L548 160L386 160L386 140L530 140L530 120L413 120L413 100L395 100L395 80L422 80L422 60L422 60L422 40L467 40L467 20L512 20L512 0L738 0L738 20L756 20L756 40L675 40L675 60L702 60L702 80L657 80L657 100L711 100L711 120L711 120L711 140L720 140L720 160L693 160L693 180L711 180L711 200L693 200L693 220L747 220L747 240L630 240L630 260L693 260L693 280L711 280L711 300L729 300Z" fill="#78bb6e"></path><path d="M350 300L305 300L305 280L422 280L422 260L305 260L305 240L503 240L503 220L305 220L305 200L377 200L377 180L422 180L422 160L305 160L305 140L476 140L476 120L323 120L323 100L323 100L323 80L332 80L332 60L332 60L332 40L332 40L332 20L413 20L413 0L513 0L513 20L468 20L468 40L423 40L423 60L423 60L423 80L396 80L396 100L414 100L414 120L531 120L531 140L387 140L387 160L549 160L549 180L459 180L459 200L387 200L387 220L594 220L594 240L360 240L360 260L486 260L486 280L405 280L405 300L459 300Z" fill="#63b76a"></path><path d="M170 300L89 300L89 280L98 280L98 260L188 260L188 240L206 240L206 220L152 220L152 200L206 200L206 180L143 180L143 160L125 160L125 140L206 140L206 120L170 120L170 100L143 100L143 80L170 80L170 60L125 60L125 40L206 40L206 20L197 20L197 0L414 0L414 20L333 20L333 40L333 40L333 60L333 60L333 80L324 80L324 100L324 100L324 120L477 120L477 140L306 140L306 160L423 160L423 180L378 180L378 200L306 200L306 220L504 220L504 240L306 240L306 260L423 260L423 280L306 280L306 300L351 300Z" fill="#4ab468"></path><path d="M0 300L0 300L0 280L0 280L0 260L0 260L0 240L0 240L0 220L0 220L0 200L0 200L0 180L0 180L0 160L0 160L0 140L0 140L0 120L0 120L0 100L0 100L0 80L0 80L0 60L0 60L0 40L0 40L0 20L0 20L0 0L198 0L198 20L207 20L207 40L126 40L126 60L171 60L171 80L144 80L144 100L171 100L171 120L207 120L207 140L126 140L126 160L144 160L144 180L207 180L207 200L153 200L153 220L207 220L207 240L189 240L189 260L99 260L99 280L90 280L90 300L171 300Z" fill="#23b067"></path></svg>