<svg id="visual" viewBox="0 0 900 300" width="900" height="300" xmlns="http://www.w3.org/2000/svg" xmlns:xlink="http://www.w3.org/1999/xlink" version="1.1"><path d="M0 46L45 28L90 52L135 67L180 37L225 7L270 25L315 31L360 55L405 22L450 13L495 37L540 43L585 43L630 25L675 49L720 52L765 70L810 64L855 37L900 49L900 0L855 0L810 0L765 0L720 0L675 0L630 0L585 0L540 0L495 0L450 0L405 0L360 0L315 0L270 0L225 0L180 0L135 0L90 0L45 0L0 0Z" fill="#781515"></path><path d="M0 76L45 85L90 106L135 85L180 103L225 91L270 94L315 91L360 115L405 31L450 70L495 91L540 55L585 109L630 58L675 103L720 73L765 169L810 139L855 91L900 88L900 47L855 35L810 62L765 68L720 50L675 47L630 23L585 41L540 41L495 35L450 11L405 20L360 53L315 29L270 23L225 5L180 35L135 65L90 50L45 26L0 44Z" fill="#841834"></path><path d="M0 109L45 100L90 124L135 91L180 127L225 94L270 124L315 118L360 136L405 61L450 82L495 109L540 79L585 115L630 85L675 112L720 94L765 184L810 148L855 94L900 106L900 86L855 89L810 137L765 167L720 71L675 101L630 56L585 107L540 53L495 89L450 68L405 29L360 113L315 89L270 92L225 89L180 101L135 83L90 104L45 83L0 74Z" fill="#892652"></path><path d="M0 124L45 130L90 154L135 118L180 172L225 121L270 139L315 145L360 163L405 97L450 88L495 121L540 106L585 151L630 94L675 151L720 97L765 199L810 169L855 118L900 139L900 104L855 92L810 146L765 182L720 92L675 110L630 83L585 113L540 77L495 107L450 80L405 59L360 134L315 116L270 122L225 92L180 125L135 89L90 122L45 98L0 107Z" fill="#85386f"></path><path d="M0 139L45 145L90 187L135 130L180 175L225 160L270 148L315 154L360 190L405 100L450 97L495 145L540 133L585 160L630 97L675 157L720 112L765 211L810 208L855 145L900 172L900 137L855 116L810 167L765 197L720 95L675 149L630 92L585 149L540 104L495 119L450 86L405 95L360 161L315 143L270 137L225 119L180 170L135 116L90 152L45 128L0 122Z" fill="#794a88"></path><path d="M0 196L45 169L90 214L135 184L180 211L225 217L270 178L315 196L360 229L405 169L450 187L495 208L540 169L585 211L630 175L675 166L720 124L765 274L810 253L855 202L900 226L900 170L855 143L810 206L765 209L720 110L675 155L630 95L585 158L540 131L495 143L450 95L405 98L360 188L315 152L270 146L225 158L180 173L135 128L90 185L45 143L0 137Z" fill="#685c9b"></path><path d="M0 262L45 283L90 268L135 292L180 280L225 256L270 286L315 265L360 271L405 262L450 277L495 280L540 259L585 274L630 262L675 277L720 253L765 292L810 298L855 250L900 295L900 224L855 200L810 251L765 272L720 122L675 164L630 173L585 209L540 167L495 206L450 185L405 167L360 227L315 194L270 176L225 215L180 209L135 182L90 212L45 167L0 194Z" fill="#526ca8"></path><path d="M0 301L45 301L90 301L135 301L180 301L225 301L270 301L315 301L360 301L405 301L450 301L495 301L540 301L585 301L630 301L675 301L720 301L765 301L810 301L855 301L900 301L900 293L855 248L810 296L765 290L720 251L675 275L630 260L585 272L540 257L495 278L450 275L405 260L360 269L315 263L270 284L225 254L180 278L135 290L90 266L45 281L0 260Z" fill="#3b7aae"></path></svg>